0
SECTION
2
HEADER
9
$INSUNITS
70
4
9
$ACADVER
1
AC1014
9
$HANDSEED
5
FFFF
0
ENDSEC
0
SECTION
2
TABLES
0
TABLE
2
VPORT
5
8
100
AcDbSymbolTable
0
ENDTAB
0
TABLE
2
LTYPE
5
5
100
AcDbSymbolTable
0
LTYPE
5
14
100
AcDbSymbolTableRecord
100
AcDbLinetypeTableRecord
2
BYBLOCK
70
0
0
LTYPE
5
15
100
AcDbSymbolTableRecord
100
AcDbLinetypeTableRecord
2
BYLAYER
70
0
0
ENDTAB
0
TABLE
2
LAYER
5
2
100
AcDbSymbolTable
70
2
0
LAYER
5
50
100
AcDbSymbolTableRecord
100
AcDbLayerTableRecord
2
0
70
0
6
CONTINUOUS
0
ENDTAB
0
TABLE
2
STYLE
5
3
100
AcDbSymbolTable
70
1
0
STYLE
5
11
100
AcDbSymbolTableRecord
100
AcDbTextStyleTableRecord
2
STANDARD
70
0
0
ENDTAB
0
TABLE
2
VIEW
5
6
100
AcDbSymbolTable
70
0
0
ENDTAB
0
TABLE
2
UCS
5
7
100
AcDbSymbolTable
70
0
0
ENDTAB
0
TABLE
2
APPID
5
9
100
AcDbSymbolTable
70
2
0
APPID
5
12
100
AcDbSymbolTableRecord
100
AcDbRegAppTableRecord
2
ACAD
70
0
0
ENDTAB
0
TABLE
2
DIMSTYLE
5
A
100
AcDbSymbolTable
70
1
0
ENDTAB
0
TABLE
2
BLOCK_RECORD
5
1
100
AcDbSymbolTable
70
1
0
BLOCK_RECORD
5
1F
100
AcDbSymbolTableRecord
100
AcDbBlockTableRecord
2
*MODEL_SPACE
0
BLOCK_RECORD
5
1B
100
AcDbSymbolTableRecord
100
AcDbBlockTableRecord
2
*PAPER_SPACE
0
ENDTAB
0
ENDSEC
0
SECTION
2
BLOCKS
0
BLOCK
5
20
100
AcDbEntity
100
AcDbBlockBegin
2
*MODEL_SPACE
0
ENDBLK
5
21
100
AcDbEntity
100
AcDbBlockEnd
0
BLOCK
5
1C
100
AcDbEntity
100
AcDbBlockBegin
2
*PAPER_SPACE
0
ENDBLK
5
1D
100
AcDbEntity
100
AcDbBlockEnd
0
ENDSEC
0
SECTION
2
ENTITIES
0
LWPOLYLINE
5
100
100
AcDbEntity
8
0
100
AcDbPolyline
90
72
70
1
43
0.0
10
-137.96875000000003
20
68.975386981132345
10
-137.96875
20
73.312932166025377
42
-0.41421356237308982
10
-137.46875
20
73.812932166025377
10
-124.46874999999999
20
73.812932166025377
42
-0.41421356237307944
10
-123.96875
20
73.312932166025377
10
-123.96875000000001
20
69.112932166025402
10
-84.796150000000011
20
69.112932166025388
42
0.41421356237309503
10
-84.296149999999997
20
69.612932166025388
10
-84.296149999999983
20
72.916932166025376
42
-0.41421356237308982
10
-83.796149999999997
20
73.416932166025376
10
-82.992750000000001
20
73.41693216602539
42
0.41421356237309503
10
-82.492749999999987
20
73.916932166025404
10
-82.492750000000001
20
74.08533216602541
42
-0.41421356237309503
10
-81.992750000000001
20
74.58533216602541
10
-79.944749999999999
20
74.58533216602541
42
-0.41421356237309503
10
-79.444749999999999
20
74.08533216602541
10
-79.444749999999999
20
73.916932166025418
42
0.039590427755014965
10
-79.438500000000005
20
73.838122664694694
10
-79.438500000000005
20
73.779386981132348
42
0.41421356237310025
10
-78.938500000000005
20
73.279386981132348
10
-78.135099999999994
20
73.279386981132348
42
-0.36857884982347272
10
-77.641349999999989
20
72.858196482463086
10
-77.641350000000003
20
67.820932166025386
42
0.039590427755055883
10
-77.635099999999994
20
67.742122664694591
10
-77.635099999999994
20
67.683386981132344
42
0.41421356237310025
10
-77.135099999999994
20
67.183386981132344
10
-76.777749999999997
20
67.183386981132358
10
-76.777749999999997
20
65.026932166025404
42
-0.41421356237310542
10
-77.277749999999997
20
64.526932166025389
10
-77.641350000000003
20
64.526932166025389
10
-77.641350000000003
20
61.623332166025399
42
-0.41421356237310025
10
-78.141350000000003
20
61.123332166025392
10
-83.796149999999997
20
61.123332166025371
42
-0.36857884982347355
10
-84.289900000000003
20
61.544522664694654
10
-84.289900000000003
20
63.875386981132351
42
0.039590427755018497
10
-84.296149999999997
20
63.954196482463075
10
-84.296149999999997
20
64.012932166025394
42
0.41421356237309503
10
-84.796150000000011
20
64.512932166025394
10
-123.96875
20
64.512932166025394
10
-123.96875000000001
20
60.312932166025405
42
-0.41421356237310025
10
-124.46875
20
59.812932166025391
10
-137.46875
20
59.812932166025384
42
-0.41421356237309503
10
-137.96875000000003
20
60.312932166025391
10
-137.96875000000003
20
64.512932166025394
10
-177.14134999999999
20
64.512932166025394
42
0.41421356237310025
10
-177.64134999999999
20
64.012932166025379
10
-177.64134999999999
20
61.623332166025399
42
-0.41421356237310025
10
-178.14134999999999
20
61.123332166025392
10
-183.79615000000001
20
61.123332166025378
42
-0.41421356237309503
10
-184.29615000000001
20
61.623332166025392
10
-184.29615000000001
20
64.526932166025389
10
-184.65975
20
64.526932166025375
42
-0.41421356237310025
10
-185.15975
20
65.026932166025389
10
-185.15975
20
67.320932166025415
10
-184.79615000000001
20
67.320932166025401
42
0.41421356237309503
10
-184.29615000000001
20
67.820932166025386
10
-184.29615000000001
20
72.916932166025376
42
-0.41421356237308982
10
-183.79615000000001
20
73.416932166025376
10
-182.99275
20
73.41693216602539
42
0.41421356237309503
10
-182.49275
20
73.916932166025404
10
-182.49275
20
74.08533216602541
42
-0.41421356237309503
10
-181.99275
20
74.58533216602541
10
-179.94475
20
74.58533216602541
42
-0.41421356237309503
10
-179.44475
20
74.08533216602541
10
-179.44475
20
73.916932166025418
42
0.41421356237310025
10
-178.94475
20
73.41693216602539
10
-178.14134999999999
20
73.416932166025376
42
-0.41421356237309503
10
-177.64134999999999
20
72.916932166025376
10
-177.64134999999999
20
69.612932166025388
42
0.41421356237310025
10
-177.14134999999999
20
69.112932166025374
10
-172.72952198972456
20
69.112932166025402
42
0.19229213253510116
10
-172.38510000000002
20
68.975386981132345
0
LWPOLYLINE
5
101
100
AcDbEntity
8
0
100
AcDbPolyline
90
8
70
1
43
0.0
10
-230.33750000000001
20
73.812932166025377
42
0.41421356237308982
10
-230.83750000000003
20
73.312932166025377
10
-230.83750000000003
20
60.312932166025391
42
0.41421356237309503
10
-230.33750000000001
20
59.812932166025384
10
-217.33750000000001
20
59.812932166025391
42
0.41421356237310025
10
-216.83750000000001
20
60.312932166025405
10
-216.83750000000001
20
73.312932166025377
42
0.41421356237308982
10
-217.33750000000001
20
73.812932166025405
0
LWPOLYLINE
5
102
100
AcDbEntity
8
0
100
AcDbPolyline
90
8
70
1
43
0.0
10
-208.90625
20
73.812932166025391
10
-195.90625000000003
20
73.812932166025377
42
-0.41421356237309503
10
-195.40625000000003
20
73.312932166025377
10
-195.40625000000003
20
60.312932166025405
42
-0.41421356237310025
10
-195.90625000000003
20
59.812932166025391
10
-208.90625
20
59.812932166025384
42
-0.41421356237309503
10
-209.40625
20
60.312932166025391
10
-209.40625
20
73.312932166025377
42
-0.41421356237308982
0
LWPOLYLINE
5
103
100
AcDbEntity
8
0
100
AcDbPolyline
90
8
70
1
43
0.0
10
-174.47500000000002
20
2.5253869811323244
42
0.41421356237309503
10
-173.97500000000002
20
3.0253869811323253
10
-173.97500000000002
20
16.025386981132328
42
0.41421356237309503
10
-174.47500000000002
20
16.525386981132336
10
-187.47499999999999
20
16.525386981132328
42
0.4142135623730937
10
-187.97499999999999
20
16.025386981132328
10
-187.97499999999999
20
3.025386981132324
42
0.41421356237309503
10
-187.47499999999999
20
2.5253869811323297
0
LWPOLYLINE
5
104
100
AcDbEntity
8
0
100
AcDbPolyline
90
8
70
1
43
0.0
10
-264.17500000000007
20
3.0253869811323453
10
-264.17500000000007
20
16.025386981132328
42
-0.4142135623730937
10
-263.67500000000001
20
16.525386981132328
10
-250.67500000000001
20
16.525386981132336
42
-0.41421356237309503
10
-250.17500000000001
20
16.025386981132328
10
-250.17500000000001
20
3.0253869811323453
42
-0.41421356237310736
10
-250.67500000000001
20
2.5253869811323244
10
-263.67500000000001
20
2.5253869811323169
42
-0.41421356237310736
0
LWPOLYLINE
5
105
100
AcDbEntity
8
0
100
AcDbPolyline
90
8
70
1
43
0.0
10
-155.42500000000004
20
2.5253869811323297
10
-168.42500000000001
20
2.5253869811323169
42
-0.41421356237309503
10
-168.92500000000001
20
3.025386981132324
10
-168.92500000000001
20
16.025386981132328
42
-0.4142135623730937
10
-168.42500000000001
20
16.525386981132328
10
-155.42500000000004
20
16.525386981132336
42
-0.41421356237310542
10
-154.92500000000001
20
16.025386981132328
10
-154.92500000000004
20
3.0253869811323453
42
-0.41421356237311779
0
LWPOLYLINE
5
106
100
AcDbEntity
8
0
100
AcDbPolyline
90
8
70
1
43
0.0
10
-103.03750000000001
20
21.57538698113234
10
-116.03749999999999
20
21.575386981132322
42
-0.41421356237309503
10
-116.53750000000001
20
22.075386981132329
10
-116.53749999999999
20
35.07538698113234
42
-0.41421356237308982
10
-116.03749999999999
20
35.575386981132333
10
-103.03750000000001
20
35.57538698113234
42
-0.41421356237309503
10
-102.53749999999999
20
35.075386981132333
10
-102.53750000000002
20
22.075386981132329
42
-0.41421356237309503
0
LWPOLYLINE
5
107
100
AcDbEntity
8
0
100
AcDbPolyline
90
8
70
1
43
0.0
10
-64.9375
20
21.57538698113234
10
-77.9375
20
21.575386981132333
42
-0.41421356237309503
10
-78.4375
20
22.075386981132329
10
-78.4375
20
35.07538698113234
42
-0.41421356237308982
10
-77.9375
20
35.575386981132333
10
-64.9375
20
35.575386981132333
42
-0.41421356237309503
10
-64.4375
20
35.075386981132333
10
-64.437500000000014
20
22.075386981132329
42
-0.41421356237309503
0
LWPOLYLINE
5
108
100
AcDbEntity
8
0
100
AcDbPolyline
90
8
70
1
43
0.0
10
-45.887499999999989
20
21.57538698113234
10
-58.88750000000001
20
21.575386981132333
42
-0.41421356237309503
10
-59.387500000000003
20
22.075386981132329
10
-59.387500000000003
20
35.07538698113234
42
-0.41421356237308982
10
-58.88750000000001
20
35.575386981132333
10
-45.887499999999989
20
35.575386981132333
42
-0.41421356237308982
10
-45.387500000000003
20
35.075386981132333
10
-45.38750000000001
20
22.075386981132329
42
-0.41421356237308982
0
LWPOLYLINE
5
109
100
AcDbEntity
8
0
100
AcDbPolyline
90
8
70
1
43
0.0
10
-26.837499999999999
20
21.57538698113234
10
-39.837500000000006
20
21.575386981132326
42
-0.41421356237309243
10
-40.337500000000006
20
22.075386981132329
10
-40.337499999999991
20
35.07538698113234
42
-0.41421356237308982
10
-39.837499999999999
20
35.575386981132333
10
-26.837499999999999
20
35.575386981132333
42
-0.41421356237309503
10
-26.337499999999999
20
35.075386981132333
10
-26.337500000000009
20
22.075386981132329
42
-0.41421356237309503
0
LWPOLYLINE
5
110
100
AcDbEntity
8
0
100
AcDbPolyline
90
8
70
1
43
0.0
10
-141.13749999999999
20
21.57538698113234
10
-154.13749999999999
20
21.575386981132322
42
-0.41421356237309503
10
-154.63750000000002
20
22.075386981132329
10
-154.63750000000002
20
35.07538698113234
42
-0.41421356237308982
10
-154.13749999999999
20
35.575386981132333
10
-141.13749999999999
20
35.57538698113234
42
-0.41421356237309503
10
-140.63749999999999
20
35.075386981132333
10
-140.63750000000002
20
22.075386981132329
42
-0.41421356237309503
0
LWPOLYLINE
5
111
100
AcDbEntity
8
0
100
AcDbPolyline
90
8
70
1
43
0.0
10
-160.1875
20
21.57538698113234
10
-173.1875
20
21.575386981132322
42
-0.41421356237309503
10
-173.68750000000003
20
22.075386981132329
10
-173.68750000000003
20
35.07538698113234
42
-0.41421356237308982
10
-173.1875
20
35.575386981132333
10
-160.1875
20
35.57538698113234
42
-0.41421356237309503
10
-159.6875
20
35.075386981132333
10
-159.68750000000003
20
22.075386981132329
42
-0.41421356237309503
0
LWPOLYLINE
5
112
100
AcDbEntity
8
0
100
AcDbPolyline
90
8
70
1
43
0.0
10
-83.987499999999997
20
21.57538698113234
10
-96.987500000000011
20
21.575386981132322
42
-0.41421356237309503
10
-97.487500000000011
20
22.075386981132329
10
-97.487500000000011
20
35.07538698113234
42
-0.41421356237308982
10
-96.987500000000011
20
35.575386981132333
10
-83.987499999999997
20
35.57538698113234
42
-0.41421356237309503
10
-83.487499999999983
20
35.075386981132333
10
-83.487500000000011
20
22.075386981132329
42
-0.41421356237309503
0
LWPOLYLINE
5
113
100
AcDbEntity
8
0
100
AcDbPolyline
90
8
70
1
43
0.0
10
-135.58750000000003
20
22.075386981132329
10
-135.58750000000001
20
35.07538698113234
42
-0.41421356237308982
10
-135.08750000000001
20
35.575386981132333
10
-122.08750000000002
20
35.57538698113234
42
-0.41421356237309503
10
-121.58750000000001
20
35.075386981132333
10
-121.58750000000001
20
22.075386981132329
42
-0.41421356237309503
10
-122.08750000000002
20
21.575386981132333
10
-135.08750000000003
20
21.575386981132304
42
-0.4142135623730846
0
LWPOLYLINE
5
114
100
AcDbEntity
8
0
100
AcDbPolyline
90
8
70
1
43
0.0
10
-10.168750000000006
20
40.625386981132337
10
-23.168749999999996
20
40.625386981132337
42
-0.41421356237309764
10
-23.668749999999999
20
41.125386981132337
10
-23.668749999999999
20
54.125386981132344
42
-0.41421356237308982
10
-23.168749999999999
20
54.625386981132337
10
-10.168750000000006
20
54.625386981132337
42
-0.41421356237309892
10
-9.6687499999999993
20
54.125386981132337
10
-9.6687500000000011
20
41.125386981132337
42
-0.41421356237309892
0
LWPOLYLINE
5
115
100
AcDbEntity
8
0
100
AcDbPolyline
90
8
70
1
43
0.0
10
-198.28749999999999
20
21.57538698113234
10
-211.28749999999999
20
21.575386981132322
42
-0.41421356237309503
10
-211.78750000000002
20
22.075386981132329
10
-211.78750000000002
20
35.07538698113234
42
-0.41421356237308982
10
-211.28749999999999
20
35.575386981132333
10
-198.28749999999999
20
35.57538698113234
42
-0.41421356237309503
10
-197.78749999999999
20
35.075386981132333
10
-197.78750000000002
20
22.075386981132329
42
-0.41421356237309503
0
LWPOLYLINE
5
116
100
AcDbEntity
8
0
100
AcDbPolyline
90
8
70
1
43
0.0
10
-55.412499999999994
20
40.625386981132337
10
-68.412499999999994
20
40.625386981132337
42
-0.41421356237309503
10
-68.912499999999994
20
41.125386981132337
10
-68.912499999999994
20
54.125386981132344
42
-0.41421356237308982
10
-68.412499999999994
20
54.625386981132337
10
-55.412499999999994
20
54.625386981132337
42
-0.41421356237308982
10
-54.912500000000009
20
54.125386981132337
10
-54.912500000000009
20
41.125386981132337
42
-0.41421356237308982
0
LWPOLYLINE
5
117
100
AcDbEntity
8
0
100
AcDbPolyline
90
8
70
1
43
0.0
10
-217.33750000000001
20
21.57538698113234
10
-230.33750000000001
20
21.575386981132322
42
-0.41421356237309503
10
-230.83750000000003
20
22.075386981132329
10
-230.83750000000003
20
35.07538698113234
42
-0.41421356237308982
10
-230.33750000000001
20
35.575386981132333
10
-217.33750000000001
20
35.57538698113234
42
-0.41421356237309503
10
-216.83750000000001
20
35.075386981132333
10
-216.83750000000003
20
22.075386981132329
42
-0.41421356237309503
0
LWPOLYLINE
5
118
100
AcDbEntity
8
0
100
AcDbPolyline
90
8
70
1
43
0.0
10
-243.53125000000003
20
21.57538698113234
10
-256.53125
20
21.575386981132322
42
-0.41421356237309503
10
-257.03125000000006
20
22.075386981132329
10
-257.03125000000006
20
35.07538698113234
42
-0.41421356237308982
10
-256.53125
20
35.575386981132333
10
-243.53125000000003
20
35.57538698113234
42
-0.41421356237309503
10
-243.03125
20
35.075386981132333
10
-243.03125
20
22.075386981132329
42
-0.41421356237309503
0
LWPOLYLINE
5
119
100
AcDbEntity
8
0
100
AcDbPolyline
90
8
70
1
43
0.0
10
-179.23750000000001
20
21.57538698113234
10
-192.23750000000001
20
21.575386981132322
42
-0.41421356237309503
10
-192.73750000000004
20
22.075386981132329
10
-192.73750000000004
20
35.07538698113234
42
-0.41421356237308982
10
-192.23750000000001
20
35.575386981132333
10
-179.23750000000001
20
35.57538698113234
42
-0.41421356237309503
10
-178.73750000000001
20
35.075386981132333
10
-178.73750000000001
20
22.075386981132329
42
-0.41421356237309503
0
LWPOLYLINE
5
120
100
AcDbEntity
8
0
100
AcDbPolyline
90
8
70
1
43
0.0
10
-74.462500000000006
20
40.625386981132337
10
-87.46250000000002
20
40.62538698113233
42
-0.41421356237309503
10
-87.96250000000002
20
41.125386981132337
10
-87.962500000000006
20
54.125386981132344
42
-0.41421356237308982
10
-87.46250000000002
20
54.625386981132337
10
-74.462500000000006
20
54.625386981132337
42
-0.41421356237309503
10
-73.962500000000006
20
54.125386981132337
10
-73.962500000000006
20
41.125386981132337
42
-0.41421356237309503
0
LWPOLYLINE
5
121
100
AcDbEntity
8
0
100
AcDbPolyline
90
8
70
1
43
0.0
10
-49.862499999999997
20
41.125386981132337
10
-49.862499999999997
20
54.125386981132344
42
-0.41421356237308982
10
-49.362500000000004
20
54.625386981132337
10
-36.362500000000004
20
54.625386981132337
42
-0.41421356237309764
10
-35.862500000000004
20
54.125386981132337
10
-35.862500000000004
20
41.125386981132337
42
-0.41421356237309503
10
-36.362499999999997
20
40.625386981132337
10
-49.362499999999997
20
40.625386981132337
42
-0.41421356237310025
0
LWPOLYLINE
5
122
100
AcDbEntity
8
0
100
AcDbPolyline
90
8
70
1
43
0.0
10
-93.512500000000003
20
40.625386981132337
10
-106.51250000000002
20
40.62538698113233
42
-0.41421356237309503
10
-107.01250000000002
20
41.125386981132337
10
-107.01250000000002
20
54.125386981132344
42
-0.41421356237308982
10
-106.51250000000002
20
54.625386981132337
10
-93.512500000000003
20
54.625386981132344
42
-0.41421356237309503
10
-93.012499999999989
20
54.125386981132337
10
-93.012499999999989
20
41.125386981132337
42
-0.41421356237309503
0
LWPOLYLINE
5
123
100
AcDbEntity
8
0
100
AcDbPolyline
90
8
70
1
43
0.0
10
-169.71250000000001
20
40.625386981132337
10
-182.71250000000003
20
40.62538698113233
42
-0.41421356237309503
10
-183.21250000000003
20
41.125386981132337
10
-183.21250000000003
20
54.125386981132344
42
-0.41421356237308982
10
-182.71250000000003
20
54.625386981132337
10
-169.71250000000001
20
54.625386981132344
42
-0.41421356237309503
10
-169.21250000000001
20
54.125386981132337
10
-169.21250000000001
20
41.125386981132337
42
-0.41421356237309503
0
LWPOLYLINE
5
124
100
AcDbEntity
8
0
100
AcDbPolyline
90
8
70
1
43
0.0
10
-188.76249999999999
20
40.625386981132337
10
-201.76249999999999
20
40.62538698113233
42
-0.41421356237309503
10
-202.26249999999999
20
41.125386981132337
10
-202.26249999999999
20
54.125386981132344
42
-0.41421356237308982
10
-201.76249999999999
20
54.625386981132337
10
-188.76249999999999
20
54.625386981132344
42
-0.41421356237309503
10
-188.26249999999999
20
54.125386981132337
10
-188.26249999999999
20
41.125386981132337
42
-0.41421356237309503
0
LWPOLYLINE
5
125
100
AcDbEntity
8
0
100
AcDbPolyline
90
8
70
1
43
0.0
10
-150.66249999999999
20
40.625386981132337
42
0.41421356237309503
10
-150.16249999999999
20
41.125386981132337
10
-150.16249999999999
20
54.125386981132337
42
0.41421356237309503
10
-150.66249999999999
20
54.625386981132344
10
-163.66250000000002
20
54.625386981132337
42
0.41421356237308982
10
-164.16250000000002
20
54.125386981132344
10
-164.16250000000002
20
41.125386981132337
42
0.41421356237309503
10
-163.66250000000002
20
40.625386981132337
0
LWPOLYLINE
5
126
100
AcDbEntity
8
0
100
AcDbPolyline
90
8
70
1
43
0.0
10
-207.8125
20
40.625386981132337
10
-220.8125
20
40.62538698113233
42
-0.41421356237309503
10
-221.3125
20
41.125386981132337
10
-221.3125
20
54.125386981132344
42
-0.41421356237308982
10
-220.8125
20
54.625386981132337
10
-207.8125
20
54.625386981132344
42
-0.41421356237309503
10
-207.3125
20
54.125386981132337
10
-207.3125
20
41.125386981132337
42
-0.41421356237309503
0
LWPOLYLINE
5
127
100
AcDbEntity
8
0
100
AcDbPolyline
90
8
70
1
43
0.0
10
-112.56250000000001
20
40.625386981132337
42
0.41421356237309503
10
-112.0625
20
41.125386981132337
10
-112.0625
20
54.125386981132337
42
0.41421356237309503
10
-112.56250000000001
20
54.625386981132344
10
-125.5625
20
54.625386981132337
42
0.41421356237308982
10
-126.0625
20
54.125386981132344
10
-126.06250000000001
20
41.125386981132337
42
0.4142135623730846
10
-125.56250000000003
20
40.625386981132337
0
LWPOLYLINE
5
128
100
AcDbEntity
8
0
100
AcDbPolyline
90
8
70
1
43
0.0
10
-229.24375000000001
20
40.625386981132337
10
-242.24375000000003
20
40.62538698113233
42
-0.41421356237309503
10
-242.74375000000003
20
41.125386981132337
10
-242.74375000000003
20
54.125386981132344
42
-0.41421356237308982
10
-242.24375000000003
20
54.625386981132337
10
-229.24375000000001
20
54.625386981132344
42
-0.41421356237309503
10
-228.74375000000001
20
54.125386981132337
10
-228.74375000000001
20
41.125386981132337
42
-0.41421356237309503
0
LWPOLYLINE
5
129
100
AcDbEntity
8
0
100
AcDbPolyline
90
8
70
1
43
0.0
10
-131.61250000000001
20
40.625386981132337
42
0.41421356237309503
10
-131.11250000000001
20
41.125386981132337
10
-131.11250000000001
20
54.125386981132337
42
0.41421356237309503
10
-131.61250000000001
20
54.625386981132358
10
-144.61250000000001
20
54.625386981132337
42
0.41421356237308982
10
-145.11250000000004
20
54.125386981132344
10
-145.11250000000001
20
41.125386981132337
42
0.4142135623730846
10
-144.61250000000004
20
40.625386981132337
0
LWPOLYLINE
5
130
100
AcDbEntity
8
0
100
AcDbPolyline
90
8
70
1
43
0.0
10
-250.67500000000001
20
40.625386981132337
10
-263.67500000000001
20
40.62538698113233
42
-0.41421356237309503
10
-264.17500000000007
20
41.125386981132337
10
-264.17500000000007
20
54.125386981132344
42
-0.41421356237308982
10
-263.67500000000001
20
54.625386981132337
10
-250.67500000000001
20
54.625386981132344
42
-0.41421356237309503
10
-250.17500000000001
20
54.125386981132337
10
-250.17500000000001
20
41.125386981132337
42
-0.41421356237309503
0
LWPOLYLINE
5
131
100
AcDbEntity
8
0
100
AcDbPolyline
90
8
70
1
43
0.0
10
-45.099999999999994
20
60.175386981132348
10
-45.099999999999994
20
73.175386981132334
42
-0.41421356237308982
10
-44.600000000000001
20
73.675386981132334
10
-31.600000000000001
20
73.675386981132334
42
-0.41421356237309503
10
-31.100000000000001
20
73.175386981132334
10
-31.100000000000001
20
60.175386981132348
42
-0.41421356237310025
10
-31.600000000000001
20
59.675386981132341
10
-44.599999999999994
20
59.675386981132341
42
-0.41421356237310542
0
LWPOLYLINE
5
132
100
AcDbEntity
8
0
100
AcDbPolyline
90
8
70
1
43
0.0
10
-53.03125
20
59.675386981132363
10
-66.03125
20
59.675386981132341
42
-0.41421356237309503
10
-66.53125
20
60.175386981132341
10
-66.53125
20
73.175386981132334
42
-0.41421356237308982
10
-66.03125
20
73.675386981132334
10
-53.03125
20
73.675386981132334
42
-0.41421356237308982
10
-52.531250000000007
20
73.175386981132334
10
-52.531250000000028
20
60.175386981132348
42
-0.41421356237309503
0
LWPOLYLINE
5
133
100
AcDbEntity
8
0
100
AcDbPolyline
90
8
70
1
43
0.0
10
-207.02500000000003
20
3.0253869811323453
10
-207.02500000000003
20
16.025386981132328
42
-0.4142135623730937
10
-206.52500000000003
20
16.525386981132328
10
-193.52500000000003
20
16.525386981132336
42
-0.41421356237309503
10
-193.02500000000003
20
16.025386981132328
10
-193.02500000000003
20
3.0253869811323453
42
-0.41421356237310736
10
-193.52500000000003
20
2.5253869811323244
10
-206.52500000000003
20
2.5253869811323169
42
-0.41421356237310736
0
LWPOLYLINE
5
134
100
AcDbEntity
8
0
100
AcDbPolyline
90
8
70
1
43
0.0
10
-231.625
20
2.5253869811323297
10
-244.62500000000003
20
2.5253869811323169
42
-0.41421356237309503
10
-245.12500000000003
20
3.025386981132324
10
-245.12500000000003
20
16.025386981132328
42
-0.4142135623730937
10
-244.62500000000003
20
16.525386981132328
10
-231.625
20
16.525386981132336
42
-0.41421356237309503
10
-231.125
20
16.025386981132328
10
-231.125
20
3.0253869811323453
42
-0.41421356237310736
0
LWPOLYLINE
5
135
100
AcDbEntity
8
0
100
AcDbPolyline
90
8
70
1
43
0.0
10
-117.32500000000002
20
2.5253869811323244
42
0.41421356237309503
10
-116.82500000000002
20
3.0253869811323253
10
-116.82500000000002
20
16.025386981132328
42
0.41421356237309503
10
-117.32500000000002
20
16.525386981132336
10
-130.32499999999999
20
16.525386981132328
42
0.4142135623730937
10
-130.82499999999999
20
16.025386981132328
10
-130.82499999999999
20
3.025386981132324
42
0.41421356237309503
10
-130.32499999999999
20
2.5253869811323297
0
LWPOLYLINE
5
136
100
AcDbEntity
8
0
100
AcDbPolyline
90
8
70
1
43
0.0
10
-212.57499999999999
20
2.5253869811323297
10
-225.57500000000002
20
2.5253869811323169
42
-0.41421356237309503
10
-226.07500000000002
20
3.025386981132324
10
-226.07500000000002
20
16.025386981132328
42
-0.4142135623730937
10
-225.57500000000002
20
16.525386981132328
10
-212.57499999999999
20
16.525386981132336
42
-0.41421356237309503
10
-212.07499999999999
20
16.025386981132328
10
-212.07499999999999
20
3.0253869811323453
42
-0.41421356237310736
0
LWPOLYLINE
5
137
100
AcDbEntity
8
0
100
AcDbPolyline
90
8
70
1
43
0.0
10
-5.4062500000000036
20
21.57538698113234
10
-18.406250000000011
20
21.575386981132326
42
-0.41421356237308982
10
-18.906250000000004
20
22.075386981132329
10
-18.90625
20
35.07538698113234
42
-0.41421356237308982
10
-18.40625
20
35.575386981132333
10
-5.4062500000000036
20
35.575386981132333
42
-0.41421356237309698
10
-4.90625
20
35.075386981132333
10
-4.9062500000000107
20
22.075386981132329
42
-0.41421356237309698
0
LWPOLYLINE
5
138
100
AcDbEntity
8
0
100
AcDbPolyline
90
8
70
1
43
0.0
10
-149.875
20
3.0253869811323453
10
-149.875
20
16.025386981132328
42
-0.4142135623730937
10
-149.375
20
16.525386981132328
10
-136.37500000000003
20
16.525386981132336
42
-0.41421356237310542
10
-135.875
20
16.025386981132328
10
-135.875
20
3.0253869811323453
42
-0.41421356237310736
10
-136.375
20
2.5253869811323244
10
-149.375
20
2.5253869811323169
42
-0.41421356237310736
0
LWPOLYLINE
5
139
100
AcDbEntity
8
0
100
AcDbPolyline
90
8
70
1
43
0.0
10
-111.77500000000002
20
3.0253869811323453
10
-111.77500000000002
20
16.025386981132328
42
-0.4142135623730937
10
-111.27500000000001
20
16.525386981132328
10
-98.275000000000006
20
16.525386981132336
42
-0.41421356237309503
10
-97.775000000000006
20
16.025386981132328
10
-97.775000000000006
20
3.0253869811323453
42
-0.41421356237310736
10
-98.275000000000006
20
2.5253869811323244
10
-111.27500000000001
20
2.5253869811323169
42
-0.41421356237310736
0
LWPOLYLINE
5
140
100
AcDbEntity
8
0
100
AcDbPolyline
90
8
70
1
43
0.0
10
-22.074999999999999
20
2.5253869811323244
42
0.41421356237309503
10
-21.575000000000003
20
3.0253869811323253
10
-21.575000000000003
20
16.025386981132328
42
0.41421356237309243
10
-22.074999999999996
20
16.525386981132336
10
-35.075000000000003
20
16.525386981132328
42
0.4142135623730937
10
-35.574999999999989
20
16.025386981132328
10
-35.575000000000003
20
3.025386981132324
42
0.41421356237309503
10
-35.075000000000003
20
2.5253869811323297
0
LWPOLYLINE
5
141
100
AcDbEntity
8
0
100
AcDbPolyline
90
8
70
1
43
0.0
10
-3.0250000000000021
20
2.5253869811323297
10
-16.025000000000009
20
2.525386981132324
42
-0.41421356237308982
10
-16.525000000000002
20
3.025386981132324
10
-16.525000000000002
20
16.025386981132328
42
-0.4142135623730937
10
-16.024999999999999
20
16.525386981132328
10
-3.0250000000000021
20
16.525386981132328
42
-0.41421356237309631
10
-2.5249999999999999
20
16.025386981132328
10
-2.5250000000000057
20
3.0253869811323453
42
-0.41421356237310869
0
LWPOLYLINE
5
142
100
AcDbEntity
8
0
100
AcDbPolyline
90
8
70
1
43
0.0
10
-79.224999999999994
20
2.5253869811323297
10
-92.224999999999994
20
2.5253869811323169
42
-0.41421356237309503
10
-92.725000000000009
20
3.025386981132324
10
-92.725000000000009
20
16.025386981132328
42
-0.4142135623730937
10
-92.224999999999994
20
16.525386981132328
10
-79.224999999999994
20
16.525386981132325
42
-0.41421356237309503
10
-78.724999999999994
20
16.025386981132328
10
-78.724999999999994
20
3.0253869811323453
42
-0.41421356237310736
0
LWPOLYLINE
5
143
100
AcDbEntity
8
0
100
AcDbPolyline
90
8
70
1
43
0.0
10
-60.174999999999997
20
2.5253869811323297
10
-73.174999999999997
20
2.5253869811323257
42
-0.41421356237309503
10
-73.674999999999997
20
3.025386981132324
10
-73.674999999999997
20
16.025386981132328
42
-0.4142135623730937
10
-73.174999999999997
20
16.525386981132328
10
-60.174999999999997
20
16.525386981132325
42
-0.41421356237309503
10
-59.675000000000004
20
16.025386981132328
10
-59.675000000000004
20
3.0253869811323453
42
-0.41421356237310736
0
LWPOLYLINE
5
144
100
AcDbEntity
8
0
100
AcDbPolyline
90
8
70
1
43
0.0
10
-41.124999999999986
20
2.5253869811323297
10
-54.125
20
2.5253869811323257
42
-0.41421356237310025
10
-54.625
20
3.025386981132324
10
-54.625
20
16.025386981132328
42
-0.4142135623730937
10
-54.125000000000007
20
16.525386981132328
10
-41.124999999999986
20
16.525386981132325
42
-0.41421356237308982
10
-40.625
20
16.025386981132328
10
-40.625
20
3.0253869811323453
42
-0.4142135623731022
0
LWPOLYLINE
5
145
100
AcDbEntity
8
0
100
AcDbPolyline
90
33
70
1
43
0.0
10
0
20
2.00038698113234
10
0
20
74.251668662381178
42
0.4142135623730937
10
-2.0000000000000115
20
76.251668662381192
10
-29.60009096525539
20
76.251668662384176
42
-0.41421406111948378
10
-31.60009437090816
20
78.251668662381277
42
0.41421356237309048
10
-33.600094370908167
20
80.251668662381263
10
-89.600000000000023
20
80.251668662381292
42
0.41421356237309503
10
-91.599999999999994
20
78.251668662381263
10
-91.599999999999994
20
78.200386981132425
42
-0.34920203712470804
10
-93.150003428720083
20
76.251668662381277
10
-183.75000000000006
20
76.251668662381164
42
-0.4142135623730937
10
-185.75000000000003
20
78.251668662381178
42
0.41421356237309631
10
-187.75000000000003
20
80.251668662381178
10
-243.75000000000003
20
80.251668662381221
42
0.41421356237309631
10
-245.75000000000003
20
78.251668662381192
42
-0.41421356237309503
10
-247.75000000000003
20
76.251668662381192
10
-264.70000000000005
20
76.251668662381192
42
0.41421356237309503
10
-266.70000000000005
20
74.251668662381192
10
-266.70000000000005
20
2.0003869811323405
42
0.41421356237309798
10
-264.70000000000005
20
0.00038698113232787934
10
-238.69999999999999
20
0.00038698113232926712
42
-0.41421356237308798
10
-236.70000000000002
20
-1.9996130188676509
42
0.41421356237309925
10
-234.70000000000002
20
-3.9996130188676728
10
-178.70000000000002
20
-3.999613018867664
42
0.41421356237309553
10
-176.70000000000002
20
-1.9996130188676773
42
-0.41421356237309553
10
-174.70000000000002
20
0.00038698113231983022
10
-92
20
0.0003869811323281569
42
-0.41421356237309681
10
-90
20
-1.9996130188676764
42
0.41421356237309692
10
-88
20
-3.9996130188676822
10
-32.000000000000014
20
-3.999613018867664
42
0.41421356237309515
10
-30.000000000000004
20
-1.9996130188676768
42
-0.41421356237309503
10
-28
20
0.00038698113231927511
10
-2.0000000000000107
20
0.00038698113233259779
42
0.41421356237309886
0
ENDSEC
0
SECTION
2
OBJECTS
0
DICTIONARY
5
C
100
AcDbDictionary
3
ACAD_GROUP
350
D
3
ACAD_MLINESTYLE
350
17
0
DICTIONARY
5
D
100
AcDbDictionary
0
DICTIONARY
5
1A
330
C
100
AcDbDictionary
0
DICTIONARY
5
17
100
AcDbDictionary
0
ENDSEC
0
EOF
