0
SECTION
2
HEADER
9
$INSUNITS
70
4
9
$ACADVER
1
AC1014
9
$HANDSEED
5
FFFF
0
ENDSEC
0
SECTION
2
TABLES
0
TABLE
2
VPORT
5
8
100
AcDbSymbolTable
0
ENDTAB
0
TABLE
2
LTYPE
5
5
100
AcDbSymbolTable
0
LTYPE
5
14
100
AcDbSymbolTableRecord
100
AcDbLinetypeTableRecord
2
BYBLOCK
70
0
0
LTYPE
5
15
100
AcDbSymbolTableRecord
100
AcDbLinetypeTableRecord
2
BYLAYER
70
0
0
ENDTAB
0
TABLE
2
LAYER
5
2
100
AcDbSymbolTable
70
2
0
LAYER
5
50
100
AcDbSymbolTableRecord
100
AcDbLayerTableRecord
2
0
70
0
6
CONTINUOUS
0
ENDTAB
0
TABLE
2
STYLE
5
3
100
AcDbSymbolTable
70
1
0
STYLE
5
11
100
AcDbSymbolTableRecord
100
AcDbTextStyleTableRecord
2
STANDARD
70
0
0
ENDTAB
0
TABLE
2
VIEW
5
6
100
AcDbSymbolTable
70
0
0
ENDTAB
0
TABLE
2
UCS
5
7
100
AcDbSymbolTable
70
0
0
ENDTAB
0
TABLE
2
APPID
5
9
100
AcDbSymbolTable
70
2
0
APPID
5
12
100
AcDbSymbolTableRecord
100
AcDbRegAppTableRecord
2
ACAD
70
0
0
ENDTAB
0
TABLE
2
DIMSTYLE
5
A
100
AcDbSymbolTable
70
1
0
ENDTAB
0
TABLE
2
BLOCK_RECORD
5
1
100
AcDbSymbolTable
70
1
0
BLOCK_RECORD
5
1F
100
AcDbSymbolTableRecord
100
AcDbBlockTableRecord
2
*MODEL_SPACE
0
BLOCK_RECORD
5
1B
100
AcDbSymbolTableRecord
100
AcDbBlockTableRecord
2
*PAPER_SPACE
0
ENDTAB
0
ENDSEC
0
SECTION
2
BLOCKS
0
BLOCK
5
20
100
AcDbEntity
100
AcDbBlockBegin
2
*MODEL_SPACE
0
ENDBLK
5
21
100
AcDbEntity
100
AcDbBlockEnd
0
BLOCK
5
1C
100
AcDbEntity
100
AcDbBlockBegin
2
*PAPER_SPACE
0
ENDBLK
5
1D
100
AcDbEntity
100
AcDbBlockEnd
0
ENDSEC
0
SECTION
2
ENTITIES
0
LWPOLYLINE
5
100
100
AcDbEntity
8
0
100
AcDbPolyline
90
8
70
1
43
0.0
10
126.85000000000001
20
-2.5249999999999999
10
139.84999999999999
20
-2.5249999999999928
42
-0.41421356237309503
10
140.34999999999999
20
-3.0249999999999999
10
140.34999999999999
20
-16.024999999999999
42
-0.41421356237309503
10
139.84999999999999
20
-16.524999999999999
10
126.85000000000001
20
-16.525000000000006
42
-0.41421356237309503
10
126.34999999999999
20
-16.024999999999999
10
126.34999999999999
20
-3.0249999999999999
42
-0.41421356237309503
0
LWPOLYLINE
5
101
100
AcDbEntity
8
0
100
AcDbPolyline
90
8
70
1
43
0.0
10
145.90000000000001
20
-2.5249999999999999
10
158.90000000000001
20
-2.5249999999999928
42
-0.41421356237309503
10
159.40000000000001
20
-3.0249999999999999
10
159.40000000000001
20
-16.024999999999999
42
-0.41421356237309503
10
158.90000000000001
20
-16.525000000000002
10
145.90000000000001
20
-16.525000000000006
42
-0.41421356237309503
10
145.40000000000001
20
-16.024999999999999
10
145.40000000000001
20
-3.0249999999999999
42
-0.41421356237309503
0
LWPOLYLINE
5
102
100
AcDbEntity
8
0
100
AcDbPolyline
90
8
70
1
43
0.0
10
101.75
20
-16.525000000000002
42
0.41421356237309503
10
102.25000000000001
20
-16.024999999999999
10
102.25000000000001
20
-3.0249999999999999
42
0.41421356237309503
10
101.75
20
-2.5249999999999999
10
88.75
20
-2.5249999999999999
42
0.41421356237309503
10
88.25
20
-3.0249999999999999
10
88.25
20
-16.024999999999999
42
0.41421356237309503
10
88.75
20
-16.524999999999999
0
LWPOLYLINE
5
103
100
AcDbEntity
8
0
100
AcDbPolyline
90
8
70
1
43
0.0
10
183.5
20
-3.0249999999999999
10
183.5
20
-16.024999999999999
42
0.41421356237309503
10
184.00000000000003
20
-16.525000000000002
10
197.00000000000003
20
-16.525000000000002
42
0.41421356237309503
10
197.5
20
-16.024999999999999
10
197.50000000000003
20
-3.0249999999999999
42
0.41421356237309503
10
197.00000000000003
20
-2.5249999999999999
10
184.00000000000003
20
-2.5249999999999999
42
0.41421356237309503
0
LWPOLYLINE
5
104
100
AcDbEntity
8
0
100
AcDbPolyline
90
8
70
1
43
0.0
10
241.15000000000003
20
-16.524999999999999
10
254.15000000000003
20
-16.525000000000002
42
0.41421356237309503
10
254.65000000000003
20
-16.024999999999999
10
254.65000000000003
20
-3.0249999999999999
42
0.41421356237309503
10
254.15000000000003
20
-2.5249999999999999
10
241.15000000000003
20
-2.5249999999999999
42
0.41421356237309503
10
240.65000000000001
20
-3.0249999999999999
10
240.65000000000001
20
-16.024999999999999
42
0.41421356237309503
0
LWPOLYLINE
5
105
100
AcDbEntity
8
0
100
AcDbPolyline
90
8
70
1
43
0.0
10
259.69999999999999
20
-16.024999999999999
42
0.41421356237309503
10
260.19999999999999
20
-16.525000000000002
10
273.19999999999999
20
-16.525000000000002
42
0.41421356237309503
10
273.69999999999999
20
-16.024999999999999
10
273.69999999999999
20
-3.0249999999999999
42
0.41421356237309503
10
273.19999999999999
20
-2.5249999999999999
10
260.19999999999999
20
-2.5249999999999999
42
0.41421356237309503
10
259.69999999999999
20
-3.0249999999999999
0
LWPOLYLINE
5
106
100
AcDbEntity
8
0
100
AcDbPolyline
90
8
70
1
43
0.0
10
5.40625
20
-21.575000000000003
10
18.40625
20
-21.574999999999996
42
-0.41421356237309503
10
18.906250000000004
20
-22.074999999999999
10
18.90625
20
-35.075000000000003
42
-0.41421356237309503
10
18.40625
20
-35.575000000000003
10
5.40625
20
-35.575000000000003
42
-0.41421356237309503
10
4.90625
20
-35.075000000000003
10
4.9062500000000018
20
-22.074999999999999
42
-0.41421356237309503
0
LWPOLYLINE
5
107
100
AcDbEntity
8
0
100
AcDbPolyline
90
8
70
1
43
0.0
10
222.10000000000002
20
-2.5249999999999999
10
235.10000000000002
20
-2.5249999999999928
42
-0.41421356237309503
10
235.60000000000002
20
-3.0249999999999999
10
235.60000000000002
20
-16.024999999999999
42
-0.41421356237309503
10
235.10000000000002
20
-16.525000000000002
10
222.10000000000002
20
-16.525000000000006
42
-0.41421356237309503
10
221.59999999999999
20
-16.024999999999999
10
221.59999999999999
20
-3.0249999999999999
42
-0.41421356237309503
0
LWPOLYLINE
5
108
100
AcDbEntity
8
0
100
AcDbPolyline
90
8
70
1
43
0.0
10
107.80000000000001
20
-2.5249999999999999
42
0.41421356237309503
10
107.30000000000001
20
-3.0249999999999999
10
107.30000000000001
20
-16.024999999999999
42
0.41421356237309503
10
107.80000000000001
20
-16.524999999999999
10
120.8
20
-16.525000000000002
42
0.41421356237309503
10
121.30000000000001
20
-16.024999999999999
10
121.30000000000001
20
-3.0249999999999999
42
0.41421356237309503
10
120.8
20
-2.5249999999999999
0
LWPOLYLINE
5
109
100
AcDbEntity
8
0
100
AcDbPolyline
90
8
70
1
43
0.0
10
164.44999999999999
20
-16.024999999999999
42
0.41421356237309503
10
164.95000000000002
20
-16.525000000000002
10
177.94999999999999
20
-16.525000000000002
42
0.41421356237309503
10
178.44999999999999
20
-16.024999999999999
10
178.44999999999999
20
-3.0249999999999999
42
0.41421356237309503
10
177.94999999999999
20
-2.5249999999999999
10
164.95000000000002
20
-2.5249999999999999
42
0.41421356237309503
10
164.44999999999999
20
-3.0249999999999999
0
LWPOLYLINE
5
110
100
AcDbEntity
8
0
100
AcDbPolyline
90
8
70
1
43
0.0
10
203.05000000000004
20
-2.5249999999999999
42
0.41421356237309503
10
202.55000000000001
20
-3.0249999999999999
10
202.55000000000001
20
-16.024999999999999
42
0.41421356237309503
10
203.05000000000004
20
-16.524999999999999
10
216.05000000000004
20
-16.525000000000002
42
0.41421356237309503
10
216.55000000000004
20
-16.024999999999999
10
216.55000000000004
20
-3.0249999999999999
42
0.41421356237309503
10
216.05000000000004
20
-2.5249999999999999
0
LWPOLYLINE
5
111
100
AcDbEntity
8
0
100
AcDbPolyline
90
8
70
1
43
0.0
10
83.200000000000017
20
-3.0249999999999999
42
0.41421356237309503
10
82.700000000000017
20
-2.5249999999999999
10
69.700000000000003
20
-2.5249999999999999
42
0.41421356237309503
10
69.200000000000003
20
-3.0249999999999999
10
69.200000000000003
20
-16.024999999999999
42
0.41421356237309503
10
69.700000000000003
20
-16.525000000000002
10
82.700000000000017
20
-16.525000000000002
42
0.41421356237309503
10
83.200000000000003
20
-16.024999999999999
0
LWPOLYLINE
5
112
100
AcDbEntity
8
0
100
AcDbPolyline
90
8
70
1
43
0.0
10
21.287500000000001
20
-3.0249999999999999
10
21.287500000000001
20
-16.024999999999999
42
-0.41421356237309503
10
20.787500000000001
20
-16.524999999999999
10
7.7875000000000005
20
-16.525000000000002
42
-0.41421356237309503
10
7.2874999999999996
20
-16.024999999999999
10
7.2874999999999996
20
-3.0249999999999999
42
-0.41421356237309503
10
7.7875000000000005
20
-2.5249999999999999
10
20.787500000000001
20
-2.5250000000000017
42
-0.41421356237309503
0
LWPOLYLINE
5
113
100
AcDbEntity
8
0
100
AcDbPolyline
90
8
70
1
43
0.0
10
164.16250000000002
20
-22.074999999999999
42
0.41421356237309503
10
163.66250000000002
20
-21.575000000000003
10
150.66249999999999
20
-21.575000000000003
42
0.41421356237309503
10
150.16249999999999
20
-22.074999999999999
10
150.16249999999999
20
-35.075000000000003
42
0.41421356237309503
10
150.66249999999999
20
-35.575000000000003
10
163.66250000000002
20
-35.575000000000003
42
0.41421356237309503
10
164.16250000000002
20
-35.075000000000003
0
LWPOLYLINE
5
114
100
AcDbEntity
8
0
100
AcDbPolyline
90
8
70
1
43
0.0
10
131.61250000000001
20
-21.575000000000003
42
0.41421356237309503
10
131.11250000000001
20
-22.074999999999999
10
131.11250000000001
20
-35.075000000000003
42
0.41421356237309503
10
131.61250000000001
20
-35.575000000000003
10
144.61250000000001
20
-35.575000000000003
42
0.41421356237309503
10
145.11250000000001
20
-35.075000000000003
10
145.11250000000001
20
-22.074999999999999
42
0.41421356237309503
10
144.61250000000001
20
-21.575000000000003
0
LWPOLYLINE
5
115
100
AcDbEntity
8
0
100
AcDbPolyline
90
8
70
1
43
0.0
10
106.51250000000002
20
-35.575000000000003
42
0.41421356237309503
10
107.01250000000002
20
-35.075000000000003
10
107.01250000000002
20
-22.074999999999999
42
0.41421356237309503
10
106.51250000000002
20
-21.575000000000003
10
93.512500000000003
20
-21.575000000000003
42
0.41421356237309503
10
93.012499999999989
20
-22.074999999999999
10
93.012499999999989
20
-35.075000000000003
42
0.41421356237309503
10
93.512500000000003
20
-35.575000000000003
0
LWPOLYLINE
5
116
100
AcDbEntity
8
0
100
AcDbPolyline
90
8
70
1
43
0.0
10
169.71250000000001
20
-21.575000000000003
10
182.71250000000003
20
-21.574999999999992
42
-0.41421356237309503
10
183.21250000000003
20
-22.074999999999999
10
183.21250000000003
20
-35.075000000000003
42
-0.41421356237309503
10
182.71250000000003
20
-35.575000000000003
10
169.71250000000001
20
-35.57500000000001
42
-0.41421356237309503
10
169.21250000000001
20
-35.075000000000003
10
169.21250000000001
20
-22.074999999999999
42
-0.41421356237309503
0
LWPOLYLINE
5
117
100
AcDbEntity
8
0
100
AcDbPolyline
90
8
70
1
43
0.0
10
35.862499999999997
20
-22.074999999999999
10
35.862500000000004
20
-35.075000000000003
42
0.41421356237309503
10
36.362499999999997
20
-35.575000000000003
10
49.362500000000004
20
-35.575000000000003
42
0.41421356237309503
10
49.862499999999997
20
-35.075000000000003
10
49.862499999999997
20
-22.074999999999999
42
0.41421356237309503
10
49.362500000000004
20
-21.575000000000003
10
36.362499999999997
20
-21.575000000000003
42
0.41421356237309503
0
LWPOLYLINE
5
118
100
AcDbEntity
8
0
100
AcDbPolyline
90
8
70
1
43
0.0
10
73.962500000000006
20
-35.075000000000003
42
0.41421356237309503
10
74.462500000000006
20
-35.575000000000003
10
87.46250000000002
20
-35.575000000000003
42
0.41421356237309503
10
87.96250000000002
20
-35.075000000000003
10
87.96250000000002
20
-22.074999999999999
42
0.41421356237309503
10
87.46250000000002
20
-21.575000000000003
10
74.462500000000006
20
-21.575000000000003
42
0.41421356237309503
10
73.962500000000006
20
-22.074999999999999
0
LWPOLYLINE
5
119
100
AcDbEntity
8
0
100
AcDbPolyline
90
8
70
1
43
0.0
10
112.0625
20
-22.074999999999999
10
112.0625
20
-35.075000000000003
42
0.41421356237309503
10
112.56250000000001
20
-35.575000000000003
10
125.5625
20
-35.575000000000003
42
0.41421356237309503
10
126.06250000000001
20
-35.075000000000003
10
126.06250000000001
20
-22.074999999999999
42
0.41421356237309503
10
125.5625
20
-21.575000000000003
10
112.56250000000001
20
-21.575000000000003
42
0.41421356237309503
0
LWPOLYLINE
5
120
100
AcDbEntity
8
0
100
AcDbPolyline
90
60
70
1
43
0.0
10
6.6658499999999998
20
-41.935400000000001
10
12.320650000000002
20
-41.935400000000001
42
-0.41421356237309503
10
12.820650000000002
20
-42.435400000000001
10
12.820650000000002
20
-42.748199999999997
10
14.431250000000002
20
-42.748199999999997
10
14.431250000000002
20
-41.125
42
-0.41421356237309503
10
14.93125
20
-40.625
10
27.931250000000006
20
-40.625
42
-0.41421356237309503
10
28.431250000000006
20
-41.125
10
28.431250000000006
20
-42.748199999999997
10
30.04185
20
-42.748199999999997
10
30.041850000000004
20
-42.435400000000001
42
-0.41421356237309503
10
30.541850000000004
20
-41.935400000000001
10
36.196649999999998
20
-41.935400000000001
42
-0.41421356237309503
10
36.696649999999998
20
-42.435400000000001
10
36.696650000000005
20
-45.338999999999999
10
37.060250000000003
20
-45.338999999999999
42
-0.41421356237309503
10
37.560250000000003
20
-45.838999999999999
10
37.560250000000003
20
-48.13300000000001
10
37.196649999999998
20
-48.13300000000001
42
0.41421356237309503
10
36.696650000000005
20
-48.63300000000001
10
36.696649999999998
20
-53.729000000000006
42
-0.41421356237309503
10
36.196649999999998
20
-54.228999999999999
10
35.393250000000002
20
-54.228999999999999
42
0.41421356237309503
10
34.893250000000002
20
-54.728999999999999
10
34.893250000000002
20
-54.897400000000005
42
-0.41421356237309503
10
34.393250000000002
20
-55.397400000000005
10
32.34525
20
-55.397400000000005
42
-0.41421356237309503
10
31.845250000000004
20
-54.897400000000005
10
31.84525
20
-54.728999999999999
42
0.41421356237309503
10
31.34525
20
-54.228999999999999
10
30.04185
20
-54.228999999999999
10
30.04185
20
-53.941600000000001
42
0.41421356237309503
10
29.541850000000004
20
-53.441600000000008
10
28.431250000000006
20
-53.441600000000008
10
28.431250000000006
20
-54.125000000000007
42
-0.41421356237309503
10
27.931250000000006
20
-54.625
10
14.93125
20
-54.625
42
-0.41421356237309503
10
14.431250000000002
20
-54.125000000000007
10
14.431250000000002
20
-53.441600000000008
10
13.320650000000001
20
-53.441600000000008
42
0.41421356237309503
10
12.820650000000002
20
-53.941600000000001
10
12.820650000000002
20
-54.228999999999999
10
11.517250000000001
20
-54.228999999999999
42
0.41421356237309503
10
11.017250000000001
20
-54.728999999999999
10
11.017249999999999
20
-54.897400000000005
42
-0.41421356237309503
10
10.517250000000001
20
-55.397400000000005
10
8.4692500000000024
20
-55.397400000000005
42
-0.41421356237309503
10
7.9692499999999997
20
-54.897400000000005
10
7.9692500000000006
20
-54.728999999999999
42
0.41421356237309503
10
7.4692500000000006
20
-54.228999999999999
10
6.6658499999999998
20
-54.228999999999999
42
-0.41421356237309503
10
6.1658500000000007
20
-53.729000000000006
10
6.1658500000000007
20
-48.63300000000001
42
0.41421356237309503
10
5.6658499999999998
20
-48.13300000000001
10
5.3022500000000008
20
-48.13300000000001
10
5.3022500000000017
20
-45.838999999999999
42
-0.41421356237309503
10
5.8022499999999999
20
-45.338999999999999
10
6.1658500000000007
20
-45.338999999999999
10
6.1658500000000016
20
-42.435400000000001
42
-0.41421356237309503
0
LWPOLYLINE
5
121
100
AcDbEntity
8
0
100
AcDbPolyline
90
8
70
1
43
0.0
10
226.86250000000001
20
-21.575000000000003
42
0.41421356237309503
10
226.36250000000001
20
-22.074999999999999
10
226.36250000000001
20
-35.075000000000003
42
0.41421356237309503
10
226.86250000000001
20
-35.575000000000003
10
239.86250000000001
20
-35.575000000000003
42
0.41421356237309503
10
240.36250000000001
20
-35.075000000000003
10
240.36250000000001
20
-22.074999999999999
42
0.41421356237309503
10
239.86250000000001
20
-21.575000000000003
0
LWPOLYLINE
5
122
100
AcDbEntity
8
0
100
AcDbPolyline
90
8
70
1
43
0.0
10
55.412500000000009
20
-35.575000000000003
10
68.412499999999994
20
-35.575000000000003
42
0.41421356237309503
10
68.912499999999994
20
-35.075000000000003
10
68.912499999999994
20
-22.074999999999999
42
0.41421356237309503
10
68.412499999999994
20
-21.575000000000003
10
55.412500000000009
20
-21.575000000000003
42
0.41421356237309503
10
54.912500000000009
20
-22.074999999999999
10
54.912500000000009
20
-35.075000000000003
42
0.41421356237309503
0
LWPOLYLINE
5
123
100
AcDbEntity
8
0
100
AcDbPolyline
90
8
70
1
43
0.0
10
252.55625000000003
20
-22.074999999999999
10
252.55625000000003
20
-35.075000000000003
42
0.41421356237309503
10
253.05625000000003
20
-35.575000000000003
10
266.05624999999998
20
-35.575000000000003
42
0.41421356237309503
10
266.55624999999998
20
-35.075000000000003
10
266.55624999999998
20
-22.074999999999999
42
0.41421356237309503
10
266.05624999999998
20
-21.575000000000003
10
253.05625000000003
20
-21.575000000000003
42
0.41421356237309503
0
LWPOLYLINE
5
124
100
AcDbEntity
8
0
100
AcDbPolyline
90
8
70
1
43
0.0
10
220.8125
20
-35.575000000000003
42
0.41421356237309503
10
221.3125
20
-35.075000000000003
10
221.3125
20
-22.074999999999999
42
0.41421356237309503
10
220.8125
20
-21.575000000000003
10
207.8125
20
-21.575000000000003
42
0.41421356237309503
10
207.31250000000003
20
-22.074999999999999
10
207.3125
20
-35.075000000000003
42
0.41421356237309503
10
207.8125
20
-35.575000000000003
0
LWPOLYLINE
5
125
100
AcDbEntity
8
0
100
AcDbPolyline
90
8
70
1
43
0.0
10
201.76249999999999
20
-35.575000000000003
42
0.41421356237309503
10
202.26249999999999
20
-35.075000000000003
10
202.26249999999999
20
-22.074999999999999
42
0.41421356237309503
10
201.76249999999999
20
-21.575000000000003
10
188.76249999999999
20
-21.575000000000003
42
0.41421356237309503
10
188.26249999999999
20
-22.074999999999999
10
188.26249999999999
20
-35.075000000000003
42
0.41421356237309503
10
188.76249999999999
20
-35.575000000000003
0
LWPOLYLINE
5
126
100
AcDbEntity
8
0
100
AcDbPolyline
90
8
70
1
43
0.0
10
45.387500000000003
20
-54.125000000000007
42
0.41421356237309503
10
45.887500000000003
20
-54.625
10
58.88750000000001
20
-54.625
42
0.41421356237309503
10
59.387500000000003
20
-54.125000000000007
10
59.387500000000003
20
-41.125
42
0.41421356237309503
10
58.88750000000001
20
-40.625
10
45.887500000000003
20
-40.625
42
0.41421356237309503
10
45.387500000000003
20
-41.125
0
LWPOLYLINE
5
127
100
AcDbEntity
8
0
100
AcDbPolyline
90
8
70
1
43
0.0
10
83.987499999999997
20
-40.625
42
0.41421356237309503
10
83.487499999999983
20
-41.125
10
83.487499999999983
20
-54.125000000000007
42
0.41421356237309503
10
83.987499999999997
20
-54.625
10
96.987500000000011
20
-54.625
42
0.41421356237309503
10
97.487500000000011
20
-54.125000000000007
10
97.487500000000011
20
-41.125
42
0.41421356237309503
10
96.987500000000011
20
-40.625
0
LWPOLYLINE
5
128
100
AcDbEntity
8
0
100
AcDbPolyline
90
8
70
1
43
0.0
10
78.4375
20
-41.125
42
0.41421356237309503
10
77.9375
20
-40.625
10
64.9375
20
-40.625
42
0.41421356237309503
10
64.4375
20
-41.125
10
64.4375
20
-54.125000000000007
42
0.41421356237309503
10
64.9375
20
-54.625
10
77.9375
20
-54.625
42
0.41421356237309503
10
78.4375
20
-54.125000000000007
0
LWPOLYLINE
5
129
100
AcDbEntity
8
0
100
AcDbPolyline
90
8
70
1
43
0.0
10
103.03750000000001
20
-54.625
10
116.03749999999999
20
-54.625
42
0.41421356237309503
10
116.53750000000001
20
-54.125000000000007
10
116.53750000000001
20
-41.125
42
0.41421356237309503
10
116.03749999999999
20
-40.625
10
103.03750000000001
20
-40.625
42
0.41421356237309503
10
102.53749999999999
20
-41.125
10
102.53749999999999
20
-54.125000000000007
42
0.41421356237309503
0
LWPOLYLINE
5
130
100
AcDbEntity
8
0
100
AcDbPolyline
90
8
70
1
43
0.0
10
122.08750000000002
20
-40.625
10
135.08750000000001
20
-40.624999999999993
42
-0.41421356237309503
10
135.58750000000001
20
-41.125
10
135.58750000000001
20
-54.125000000000007
42
-0.41421356237309503
10
135.08750000000001
20
-54.625
10
122.08750000000002
20
-54.625000000000014
42
-0.41421356237309503
10
121.58750000000001
20
-54.125000000000007
10
121.58750000000001
20
-41.125
42
-0.41421356237309503
0
LWPOLYLINE
5
131
100
AcDbEntity
8
0
100
AcDbPolyline
90
8
70
1
43
0.0
10
140.63749999999999
20
-41.125
10
140.63749999999999
20
-54.125000000000007
42
0.41421356237309503
10
141.13749999999999
20
-54.625
10
154.13749999999999
20
-54.625
42
0.41421356237309503
10
154.63749999999999
20
-54.125000000000007
10
154.63750000000002
20
-41.125
42
0.41421356237309503
10
154.13749999999999
20
-40.625
10
141.13749999999999
20
-40.625
42
0.41421356237309503
0
LWPOLYLINE
5
132
100
AcDbEntity
8
0
100
AcDbPolyline
90
8
70
1
43
0.0
10
238.26875000000001
20
-54.125000000000007
42
0.41421356237309503
10
238.76875000000001
20
-54.625
10
251.76875000000001
20
-54.625
42
0.41421356237309503
10
252.26875000000004
20
-54.125000000000007
10
252.26875000000004
20
-41.125
42
0.41421356237309503
10
251.76875000000001
20
-40.625
10
238.76875000000001
20
-40.625
42
0.41421356237309503
10
238.26875000000001
20
-41.125
0
LWPOLYLINE
5
133
100
AcDbEntity
8
0
100
AcDbPolyline
90
8
70
1
43
0.0
10
179.23750000000001
20
-40.625
10
192.23750000000001
20
-40.624999999999993
42
-0.41421356237309503
10
192.73750000000004
20
-41.125
10
192.73750000000004
20
-54.125000000000007
42
-0.41421356237309503
10
192.23750000000001
20
-54.625
10
179.23750000000001
20
-54.625000000000014
42
-0.41421356237309503
10
178.73750000000001
20
-54.125000000000007
10
178.73750000000001
20
-41.125
42
-0.41421356237309503
0
LWPOLYLINE
5
134
100
AcDbEntity
8
0
100
AcDbPolyline
90
8
70
1
43
0.0
10
198.28749999999999
20
-54.625
10
211.28749999999999
20
-54.625
42
0.41421356237309503
10
211.78750000000002
20
-54.125000000000007
10
211.78750000000002
20
-41.125
42
0.41421356237309503
10
211.28749999999999
20
-40.625
10
198.28749999999999
20
-40.625
42
0.41421356237309503
10
197.78750000000002
20
-41.125
10
197.78749999999999
20
-54.125000000000007
42
0.41421356237309503
0
LWPOLYLINE
5
135
100
AcDbEntity
8
0
100
AcDbPolyline
90
8
70
1
43
0.0
10
217.33750000000001
20
-40.625
42
0.41421356237309503
10
216.83750000000001
20
-41.125
10
216.83750000000001
20
-54.125000000000007
42
0.41421356237309503
10
217.33750000000001
20
-54.625
10
230.33750000000001
20
-54.625
42
0.41421356237309503
10
230.83750000000003
20
-54.125000000000007
10
230.83750000000003
20
-41.125
42
0.41421356237309503
10
230.33750000000001
20
-40.625
0
LWPOLYLINE
5
136
100
AcDbEntity
8
0
100
AcDbPolyline
90
8
70
1
43
0.0
10
160.1875
20
-40.625
10
173.1875
20
-40.624999999999993
42
-0.41421356237309503
10
173.68750000000003
20
-41.125
10
173.68750000000003
20
-54.125000000000007
42
-0.41421356237309503
10
173.1875
20
-54.625
10
160.1875
20
-54.625000000000014
42
-0.41421356237309503
10
159.6875
20
-54.125000000000007
10
159.6875
20
-41.125
42
-0.41421356237309503
0
LWPOLYLINE
5
137
100
AcDbEntity
8
0
100
AcDbPolyline
90
8
70
1
43
0.0
10
259.69999999999999
20
-41.125
10
259.69999999999999
20
-54.125000000000007
42
0.41421356237309503
10
260.19999999999999
20
-54.625
10
273.19999999999999
20
-54.625
42
0.41421356237309503
10
273.69999999999999
20
-54.125000000000007
10
273.69999999999999
20
-41.125
42
0.41421356237309503
10
273.19999999999999
20
-40.625
10
260.19999999999999
20
-40.625
42
0.41421356237309503
0
LWPOLYLINE
5
138
100
AcDbEntity
8
0
100
AcDbPolyline
90
8
70
1
43
0.0
10
66.03125
20
-73.674999999999997
42
0.41421356237309503
10
66.53125
20
-73.174999999999997
10
66.53125
20
-60.174999999999997
42
0.41421356237309503
10
66.03125
20
-59.675000000000004
10
53.031250000000007
20
-59.675000000000004
42
0.41421356237309503
10
52.531250000000007
20
-60.174999999999997
10
52.531250000000007
20
-73.174999999999997
42
0.41421356237309503
10
53.031250000000007
20
-73.674999999999997
0
LWPOLYLINE
5
139
100
AcDbEntity
8
0
100
AcDbPolyline
90
64
70
1
43
0.0
10
194.23850000000002
20
-74.447400000000002
10
196.28649999999999
20
-74.447400000000002
42
0.41421356237309503
10
196.78650000000002
20
-73.947400000000002
10
196.78650000000002
20
-73.778999999999996
42
-0.41421356237309503
10
197.28650000000002
20
-73.279000000000011
10
198.0899
20
-73.278999999999996
42
0.41421356237309503
10
198.58990000000003
20
-72.778999999999996
10
198.58990000000003
20
-67.683000000000007
42
-0.41421356237309503
10
199.08990000000003
20
-67.183000000000007
10
199.45350000000002
20
-67.183000000000007
10
199.45350000000002
20
-64.888999999999996
42
0.41421356237309503
10
198.95350000000002
20
-64.38900000000001
10
198.58990000000003
20
-64.38900000000001
10
198.58990000000003
20
-61.485400000000006
42
0.41421356237309503
10
198.0899
20
-60.985399999999998
10
192.43510000000001
20
-60.985400000000006
42
0.41421356237309503
10
191.93510000000001
20
-61.485400000000006
10
191.93510000000003
20
-63.875
42
-0.41421356237309503
10
191.43510000000003
20
-64.375
10
145.11250000000001
20
-64.375
10
145.11250000000001
20
-60.174999999999997
42
0.41421356237309503
10
144.61250000000001
20
-59.675000000000004
10
131.61250000000001
20
-59.675000000000004
42
0.41421356237309503
10
131.11250000000001
20
-60.174999999999997
10
131.11250000000001
20
-64.375
10
84.789900000000017
20
-64.375000000000014
42
-0.41421356237309503
10
84.289900000000003
20
-63.875
10
84.289900000000003
20
-61.485400000000006
42
0.41421356237309503
10
83.789900000000003
20
-60.985399999999998
10
78.135099999999994
20
-60.985400000000006
42
0.41421356237309503
10
77.635099999999994
20
-61.485400000000006
10
77.635099999999994
20
-64.38900000000001
10
77.271500000000003
20
-64.38900000000001
42
0.41421356237309503
10
76.771500000000003
20
-64.888999999999996
10
76.771500000000003
20
-67.183000000000007
10
77.135099999999994
20
-67.183000000000007
42
-0.41421356237309503
10
77.635099999999994
20
-67.683000000000007
10
77.635099999999994
20
-72.778999999999996
42
0.41421356237309503
10
78.135099999999994
20
-73.278999999999996
10
78.938500000000005
20
-73.279000000000011
42
-0.41421356237309503
10
79.438500000000005
20
-73.778999999999996
10
79.438500000000005
20
-73.947400000000002
42
0.41421356237309503
10
79.938500000000005
20
-74.447400000000002
10
81.986500000000007
20
-74.447400000000002
42
0.41421356237309503
10
82.486500000000007
20
-73.947400000000002
10
82.486500000000007
20
-73.778999999999996
42
-0.41421356237309503
10
82.986500000000007
20
-73.278999999999996
10
83.789900000000003
20
-73.278999999999996
42
0.41421356237309503
10
84.289900000000003
20
-72.778999999999996
10
84.289900000000017
20
-69.474999999999994
42
-0.41421356237309503
10
84.789900000000017
20
-68.974999999999994
10
131.11250000000001
20
-68.974999999999994
10
131.11250000000001
20
-73.174999999999997
42
0.41421356237309503
10
131.61250000000001
20
-73.674999999999997
10
144.61250000000001
20
-73.674999999999997
42
0.41421356237309503
10
145.11250000000001
20
-73.174999999999997
10
145.11250000000001
20
-68.974999999999994
10
191.43510000000003
20
-68.974999999999994
42
-0.41421356237309503
10
191.93510000000001
20
-69.474999999999994
10
191.93510000000001
20
-72.778999999999996
42
0.41421356237309503
10
192.43510000000001
20
-73.278999999999996
10
193.23849999999999
20
-73.278999999999996
42
-0.41421356237309503
10
193.73850000000002
20
-73.778999999999996
10
193.73850000000002
20
-73.947400000000002
42
0.41421356237309503
0
LWPOLYLINE
5
140
100
AcDbEntity
8
0
100
AcDbPolyline
90
8
70
1
43
0.0
10
31.600000000000001
20
-59.675000000000004
10
44.600000000000001
20
-59.675000000000004
42
-0.41421356237309503
10
45.100000000000009
20
-60.174999999999997
10
45.099999999999994
20
-73.174999999999997
42
-0.41421356237309503
10
44.600000000000001
20
-73.674999999999997
10
31.600000000000001
20
-73.674999999999997
42
-0.41421356237309503
10
31.100000000000001
20
-73.174999999999997
10
31.100000000000001
20
-60.174999999999997
42
-0.41421356237309503
0
LWPOLYLINE
5
141
100
AcDbEntity
8
0
100
AcDbPolyline
90
8
70
1
43
0.0
10
245.12500000000003
20
-60.174999999999997
10
245.12500000000003
20
-73.174999999999997
42
-0.41421356237309503
10
244.62500000000003
20
-73.674999999999997
10
231.625
20
-73.675000000000011
42
-0.41421356237309503
10
231.125
20
-73.174999999999997
10
231.125
20
-60.174999999999997
42
-0.41421356237309503
10
231.625
20
-59.675000000000004
10
244.62500000000003
20
-59.674999999999997
42
-0.41421356237309503
0
LWPOLYLINE
5
142
100
AcDbEntity
8
0
100
AcDbPolyline
90
8
70
1
43
0.0
10
223.19375000000002
20
-73.674999999999997
42
0.41421356237309503
10
223.69375000000002
20
-73.174999999999997
10
223.69375000000002
20
-60.174999999999997
42
0.41421356237309503
10
223.19375000000002
20
-59.675000000000004
10
210.19374999999999
20
-59.675000000000004
42
0.41421356237309503
10
209.69374999999999
20
-60.174999999999997
10
209.69374999999999
20
-73.174999999999997
42
0.41421356237309503
10
210.19374999999999
20
-73.674999999999997
0
LINE
5
143
100
AcDbEntity
8
0
100
AcDbLine
10
0
20
-74.200000000000003
30
0
11
0
21
-2.0000000000000018
31
0
0
LINE
5
144
100
AcDbEntity
8
0
100
AcDbLine
10
276.22500000000002
20
-74.200000000000003
30
0
11
276.22500000000002
21
-2.0000000000000022
31
0
0
LWPOLYLINE
5
145
100
AcDbEntity
8
0
100
AcDbPolyline
90
8
70
1
43
0.0
10
31.100000000000001
20
-16.024999999999999
42
0.41421356237309503
10
31.600000000000001
20
-16.525000000000002
10
44.600000000000001
20
-16.525000000000002
42
0.41421356237309503
10
45.099999999999994
20
-16.024999999999999
10
45.099999999999994
20
-3.0249999999999999
42
0.41421356237309503
10
44.600000000000001
20
-2.5249999999999999
10
31.600000000000001
20
-2.5249999999999999
42
0.41421356237309503
10
31.100000000000001
20
-3.0249999999999999
0
LWPOLYLINE
5
146
100
AcDbEntity
8
0
100
AcDbPolyline
90
8
70
1
43
0.0
10
50.150000000000006
20
-3.0249999999999999
10
50.150000000000006
20
-16.024999999999999
42
0.41421356237309503
10
50.650000000000006
20
-16.525000000000002
10
63.650000000000006
20
-16.525000000000002
42
0.41421356237309503
10
64.150000000000006
20
-16.024999999999999
10
64.150000000000006
20
-3.0249999999999999
42
0.41421356237309503
10
63.650000000000006
20
-2.5249999999999999
10
50.650000000000006
20
-2.5249999999999999
42
0.41421356237309503
0
LINE
5
147
100
AcDbEntity
8
0
100
AcDbLine
10
63.000005424022689
20
-81.200000000000017
30
0
11
35.000005424022696
21
-81.200000000000017
31
0
0
LINE
5
148
100
AcDbEntity
8
0
100
AcDbLine
10
63.000005424022689
20
-81.200000000000017
30
0
11
91.000005424022703
21
-81.200000000000017
31
0
0
LINE
5
149
100
AcDbEntity
8
0
100
AcDbLine
10
91.000005424022703
20
-77.200000000000003
30
0
11
83.000005424022703
21
-77.200000000000003
31
0
0
LINE
5
150
100
AcDbEntity
8
0
100
AcDbLine
10
43.000005424022696
20
-77.200000000000003
30
0
11
35.000005424022696
21
-77.200000000000003
31
0
0
ARC
5
151
100
AcDbEntity
8
0
100
AcDbCircle
10
35.000005424022682
20
-79.200000000000017
30
0
40
1.999999999999984
210
0
220
0
230
1
100
AcDbArc
50
180
51
270.0000000000004
0
ARC
5
152
100
AcDbEntity
8
0
100
AcDbCircle
10
35.000005424022703
20
-79.200000000000003
30
0
40
2.0000000000000107
210
0
220
0
230
1
100
AcDbArc
50
90.000000000000199
51
180
0
ARC
5
153
100
AcDbEntity
8
0
100
AcDbCircle
10
91.000005424022675
20
-79.200000000000017
30
0
40
2.0000000000000284
210
0
220
-0
230
1
100
AcDbArc
50
0
51
89.99999999999919
0
ARC
5
154
100
AcDbEntity
8
0
100
AcDbCircle
10
91.000005424022703
20
-79.200000000000003
30
0
40
2.0000000000000018
210
0
220
0
230
1
100
AcDbArc
50
-90
51
0
0
LINE
5
155
100
AcDbEntity
8
0
100
AcDbLine
10
213.22500000000002
20
-81.200000000000017
30
0
11
241.22500000000002
21
-81.200000000000017
31
0
0
LINE
5
156
100
AcDbEntity
8
0
100
AcDbLine
10
213.22500000000002
20
-81.200000000000017
30
0
11
185.22500000000002
21
-81.200000000000017
31
0
0
LINE
5
157
100
AcDbEntity
8
0
100
AcDbLine
10
241.22500000000002
20
-77.200000000000003
30
0
11
233.22500000000002
21
-77.200000000000003
31
0
0
LINE
5
158
100
AcDbEntity
8
0
100
AcDbLine
10
193.22500000000002
20
-77.200000000000003
30
0
11
185.22500000000002
21
-77.200000000000003
31
0
0
ARC
5
159
100
AcDbEntity
8
0
100
AcDbCircle
10
185.22500000000002
20
-79.199999999999989
30
0
40
1.9999999999999929
210
0
220
-0
230
1
100
AcDbArc
50
90
51
180
0
ARC
5
160
100
AcDbEntity
8
0
100
AcDbCircle
10
185.22500000000002
20
-79.200000000000003
30
0
40
1.9999999999999929
210
0
220
0
230
1
100
AcDbArc
50
180
51
270
0
ARC
5
161
100
AcDbEntity
8
0
100
AcDbCircle
10
241.22500000000002
20
-79.199999999999989
30
0
40
1.9999999999999929
210
0
220
0
230
1
100
AcDbArc
50
0
51
90
0
ARC
5
162
100
AcDbEntity
8
0
100
AcDbCircle
10
241.22500000000002
20
-79.200000000000003
30
0
40
2.0000000000000018
210
0
220
0
230
1
100
AcDbArc
50
-90
51
0
0
LINE
5
163
100
AcDbEntity
8
0
100
AcDbLine
10
231.22500000000002
20
5
30
0
11
259.22500000000002
21
5
31
0
0
LINE
5
164
100
AcDbEntity
8
0
100
AcDbLine
10
231.22500000000002
20
5
30
0
11
203.22500000000002
21
5
31
0
0
LINE
5
165
100
AcDbEntity
8
0
100
AcDbLine
10
259.22500000000002
20
1.0000000000000044
30
0
11
251.22500000000002
21
0.99999999999998956
31
0
0
LINE
5
166
100
AcDbEntity
8
0
100
AcDbLine
10
211.22500000000002
20
1.0000000000000073
30
0
11
203.22500000000002
21
1.0000000000000056
31
0
0
ARC
5
167
100
AcDbEntity
8
0
100
AcDbCircle
10
259.22500000000002
20
3.0000000000000027
30
0
40
1.9999999999999929
210
-0
220
0
230
1
100
AcDbArc
50
0
51
90
0
ARC
5
168
100
AcDbEntity
8
0
100
AcDbCircle
10
259.22500000000002
20
2.9999999999999973
30
0
40
1.9999999999999927
210
-0
220
0
230
1
100
AcDbArc
50
-90
51
0
0
ARC
5
169
100
AcDbEntity
8
0
100
AcDbCircle
10
203.22500000000002
20
3.0000000000000027
30
0
40
1.9999999999999973
210
0
220
-0
230
1
100
AcDbArc
50
90
51
180
0
ARC
5
170
100
AcDbEntity
8
0
100
AcDbCircle
10
203.22500000000002
20
2.9999999999999982
30
0
40
1.9999999999999929
210
0
220
0
230
1
100
AcDbArc
50
180
51
270
0
LINE
5
171
100
AcDbEntity
8
0
100
AcDbLine
10
45
20
5
30
0
11
17
21
5
31
0
0
LINE
5
172
100
AcDbEntity
8
0
100
AcDbLine
10
45
20
5
30
0
11
72.999999999999986
21
5
31
0
0
LINE
5
173
100
AcDbEntity
8
0
100
AcDbLine
10
17.000000000000007
20
1.0000000000000007
30
0
11
25
21
1.0000000000000051
31
0
0
LINE
5
174
100
AcDbEntity
8
0
100
AcDbLine
10
65
20
1.0000000000000018
30
0
11
73
21
1.0000000000000007
31
0
0
ARC
5
175
100
AcDbEntity
8
0
100
AcDbCircle
10
17.000000000000004
20
3.0000000000000004
30
0
40
1.9999999999999996
210
0
220
0
230
1
100
AcDbArc
50
90.000000000000099
51
180
0
ARC
5
176
100
AcDbEntity
8
0
100
AcDbCircle
10
17.000000000000004
20
3
30
0
40
1.9999999999999996
210
0
220
0
230
1
100
AcDbArc
50
180
51
270.00000000000011
0
ARC
5
177
100
AcDbEntity
8
0
100
AcDbCircle
10
72.999999999999986
20
2.9999999999999867
30
0
40
2.0000000000000107
210
0
220
-0
230
1
100
AcDbArc
50
0
51
90
0
ARC
5
178
100
AcDbEntity
8
0
100
AcDbCircle
10
73
20
2.9999999999999933
30
0
40
1.9999999999999927
210
-0
220
0
230
1
100
AcDbArc
50
-90
51
0
0
ARC
5
179
100
AcDbEntity
8
0
100
AcDbCircle
10
2.0000000000000107
20
-74.200000000000003
30
0
40
2.0000000000000107
210
0
220
0
230
1
100
AcDbArc
50
180
51
269.99999999999972
0
ARC
5
180
100
AcDbEntity
8
0
100
AcDbCircle
10
1.9999999999999996
20
-1.9999999999999996
30
0
40
1.9999999999999996
210
0
220
-0
230
1
100
AcDbArc
50
90
51
180
0
ARC
5
181
100
AcDbEntity
8
0
100
AcDbCircle
10
274.22500000000002
20
-1.9999999999999969
30
0
40
1.9999999999999929
210
-0
220
0
230
1
100
AcDbArc
50
0
51
90
0
ARC
5
182
100
AcDbEntity
8
0
100
AcDbCircle
10
274.22500000000002
20
-74.200000000000017
30
0
40
1.9999999999999929
210
0
220
0
230
1
100
AcDbArc
50
-90
51
0
0
LWPOLYLINE
5
183
100
AcDbEntity
8
0
100
AcDbPolyline
90
8
70
1
43
0.0
10
18.906250000000004
20
-22.074999999999999
42
0.41421356237309503
10
18.40625
20
-21.575000000000003
10
5.40625
20
-21.575000000000003
42
0.41421356237309503
10
4.90625
20
-22.074999999999999
10
4.90625
20
-35.075000000000003
42
0.41421356237309503
10
5.40625
20
-35.575000000000003
10
18.40625
20
-35.575000000000003
42
0.41421356237309503
10
18.906250000000004
20
-35.075000000000003
0
CIRCLE
5
184
100
AcDbEntity
8
0
100
AcDbCircle
10
65
20
0.50000000000000167
30
0
40
0.5
210
0
220
0
230
1
0
LINE
5
185
100
AcDbEntity
8
0
100
AcDbLine
10
25.00000037252903
20
0
30
0
11
1.9999999999999996
21
0
31
0
0
ARC
5
186
100
AcDbEntity
8
0
100
AcDbCircle
10
25
20
0.500000000000005
30
0
40
0.50000000000014377
210
0
220
0
230
1
100
AcDbArc
50
-89.999957311317687
51
90
0
LINE
5
187
100
AcDbEntity
8
0
100
AcDbLine
10
274.22500000000002
20
0
30
0
11
251.22499999999962
21
-1.0547118733938987e-14
31
0
0
ARC
5
188
100
AcDbEntity
8
0
100
AcDbCircle
10
251.22500000000002
20
0.49999999999998945
30
0
40
0.5
210
0
220
-0
230
1
100
AcDbArc
50
90
51
269.99999999995441
0
LINE
5
189
100
AcDbEntity
8
0
100
AcDbLine
10
65.000000968575478
20
0
30
0
11
211.22499999999999
21
7.2164496600635175e-15
31
0
0
ARC
5
190
100
AcDbEntity
8
0
100
AcDbCircle
10
211.22500000000002
20
0.50000000000000722
30
0
40
0.5
210
0
220
0
230
1
100
AcDbArc
50
-90.000000000003254
51
90
0
LINE
5
191
100
AcDbEntity
8
0
100
AcDbLine
10
1.9999999999999998
20
-76.200000000000017
30
0
11
43.000005424022696
21
-76.200000000000003
31
0
0
ARC
5
192
100
AcDbEntity
8
0
100
AcDbCircle
10
43.000005424022696
20
-76.700000000000003
30
0
40
0.49999999999999822
210
0
220
0
230
1
100
AcDbArc
50
-90
51
90
0
LINE
5
193
100
AcDbEntity
8
0
100
AcDbLine
10
83.000005424022703
20
-76.200000000000003
30
0
11
193.22500000000002
21
-76.200000000000003
31
0
0
ARC
5
194
100
AcDbEntity
8
0
100
AcDbCircle
10
193.22500000000002
20
-76.700000000000003
30
0
40
0.49999999999999822
210
0
220
0
230
1
100
AcDbArc
50
-90
51
90
0
LINE
5
195
100
AcDbEntity
8
0
100
AcDbLine
10
274.22500000000002
20
-76.200000000000017
30
0
11
233.22499999999977
21
-76.200000000000003
31
0
0
ARC
5
196
100
AcDbEntity
8
0
100
AcDbCircle
10
233.22500000000002
20
-76.700000000000003
30
0
40
0.49999999999999822
210
0
220
0
230
1
100
AcDbArc
50
90.000000000029317
51
270
0
ARC
5
197
100
AcDbEntity
8
0
100
AcDbCircle
10
83.000005424022703
20
-76.700000000000003
30
0
40
0.49999999999999822
210
0
220
-0
230
1
100
AcDbArc
50
90
51
270
0
ENDSEC
0
SECTION
2
OBJECTS
0
DICTIONARY
5
C
100
AcDbDictionary
3
ACAD_GROUP
350
D
3
ACAD_MLINESTYLE
350
17
0
DICTIONARY
5
D
100
AcDbDictionary
0
DICTIONARY
5
1A
330
C
100
AcDbDictionary
0
DICTIONARY
5
17
100
AcDbDictionary
0
ENDSEC
0
EOF
