0
SECTION
2
HEADER
9
$INSUNITS
70
4
9
$ACADVER
1
AC1014
9
$HANDSEED
5
FFFF
0
ENDSEC
0
SECTION
2
TABLES
0
TABLE
2
VPORT
5
8
100
AcDbSymbolTable
0
ENDTAB
0
TABLE
2
LTYPE
5
5
100
AcDbSymbolTable
0
LTYPE
5
14
100
AcDbSymbolTableRecord
100
AcDbLinetypeTableRecord
2
BYBLOCK
70
0
0
LTYPE
5
15
100
AcDbSymbolTableRecord
100
AcDbLinetypeTableRecord
2
BYLAYER
70
0
0
ENDTAB
0
TABLE
2
LAYER
5
2
100
AcDbSymbolTable
70
2
0
LAYER
5
50
100
AcDbSymbolTableRecord
100
AcDbLayerTableRecord
2
0
70
0
6
CONTINUOUS
0
ENDTAB
0
TABLE
2
STYLE
5
3
100
AcDbSymbolTable
70
1
0
STYLE
5
11
100
AcDbSymbolTableRecord
100
AcDbTextStyleTableRecord
2
STANDARD
70
0
0
ENDTAB
0
TABLE
2
VIEW
5
6
100
AcDbSymbolTable
70
0
0
ENDTAB
0
TABLE
2
UCS
5
7
100
AcDbSymbolTable
70
0
0
ENDTAB
0
TABLE
2
APPID
5
9
100
AcDbSymbolTable
70
2
0
APPID
5
12
100
AcDbSymbolTableRecord
100
AcDbRegAppTableRecord
2
ACAD
70
0
0
ENDTAB
0
TABLE
2
DIMSTYLE
5
A
100
AcDbSymbolTable
70
1
0
ENDTAB
0
TABLE
2
BLOCK_RECORD
5
1
100
AcDbSymbolTable
70
1
0
BLOCK_RECORD
5
1F
100
AcDbSymbolTableRecord
100
AcDbBlockTableRecord
2
*MODEL_SPACE
0
BLOCK_RECORD
5
1B
100
AcDbSymbolTableRecord
100
AcDbBlockTableRecord
2
*PAPER_SPACE
0
ENDTAB
0
ENDSEC
0
SECTION
2
BLOCKS
0
BLOCK
5
20
100
AcDbEntity
100
AcDbBlockBegin
2
*MODEL_SPACE
0
ENDBLK
5
21
100
AcDbEntity
100
AcDbBlockEnd
0
BLOCK
5
1C
100
AcDbEntity
100
AcDbBlockBegin
2
*PAPER_SPACE
0
ENDBLK
5
1D
100
AcDbEntity
100
AcDbBlockEnd
0
ENDSEC
0
SECTION
2
ENTITIES
0
LWPOLYLINE
5
100
100
AcDbEntity
8
0
100
AcDbPolyline
90
40
70
1
43
0.0
10
8.3266726846886741e-16
20
-75.008604316215056
42
0.41421356237309503
10
1.0000000000000009
20
-76.00860431621507
10
44.200000000000003
20
-76.008604316215056
42
-0.41421356237309115
10
46.20000000000001
20
-78.008604316215056
10
46.20000000000001
20
-78.258604316215056
42
0.41421356237308982
10
48.20000000000001
20
-80.25860431621507
10
104.20000000000002
20
-80.25860431621507
42
0.41421356237310025
10
106.20000000000002
20
-78.258604316215056
10
106.20000000000002
20
-78.008604316215056
42
-0.41421356237310025
10
108.2
20
-76.00860431621507
10
158.5
20
-76.00860431621507
42
-0.4142135623730781
10
160.50000000000006
20
-78.008604316215013
10
160.50000000000006
20
-78.258604316215042
42
0.41421356237309892
10
162.5
20
-80.258604316215028
10
218.5
20
-80.25860431621507
42
0.41421356237309892
10
220.5
20
-78.258604316215042
10
220.5
20
-78.008604316215042
42
-0.41421356237307422
10
222.50000000000006
20
-76.00860431621507
10
265.69999999999999
20
-76.008604316215056
42
0.41421356237309503
10
266.70000000000005
20
-75.008604316215056
10
266.70000000000005
20
-0.80860431621504192
42
0.41421356237309359
10
265.69999999999999
20
0.19139568378495314
10
251.07499999999999
20
0.19139568378495675
42
-0.41421356237309537
10
249.07499999999999
20
2.1913956837849518
10
249.07499999999999
20
2.4413956837849526
42
0.41421356237309548
10
247.07499999999999
20
4.4413956837849478
10
191.07499999999999
20
4.4413956837849522
42
0.41421356237309548
10
189.07499999999999
20
2.4413956837849522
10
189.07499999999999
20
2.1913956837849531
42
-0.41421356237309548
10
187.07499999999999
20
0.19139568378495689
10
79.625
20
0.19139568378495175
42
-0.41421356237309254
10
77.625
20
2.1913956837849544
10
77.625
20
2.4413956837849526
42
0.41421356237309276
10
75.625
20
4.4413956837849566
10
19.625000000000004
20
4.4413956837849522
42
0.41421356237309542
10
17.625
20
2.4413956837849526
10
17.625
20
2.1913956837849522
42
-0.4142135623730972
10
15.625000000000009
20
0.19139568378495328
10
1.0000000000000009
20
0.19139568378495286
42
0.41421356237309398
10
0
20
-0.80860431621504358
0
LWPOLYLINE
5
101
100
AcDbEntity
8
0
100
AcDbPolyline
90
8
70
1
43
0.0
10
60.174999999999997
20
-2.3336043162150473
10
73.174999999999997
20
-2.333604316215049
42
-0.41421356237309503
10
73.674999999999997
20
-2.8336043162150473
10
73.674999999999997
20
-15.833604316215048
42
-0.41421356237309503
10
73.174999999999997
20
-16.333604316215048
10
60.174999999999997
20
-16.333604316215048
42
-0.41421356237309503
10
59.675000000000004
20
-15.833604316215048
10
59.675000000000004
20
-2.8336043162150473
42
-0.41421356237309503
0
LWPOLYLINE
5
102
100
AcDbEntity
8
0
100
AcDbPolyline
90
8
70
1
43
0.0
10
79.224999999999994
20
-2.3336043162150473
10
92.224999999999994
20
-2.3336043162150402
42
-0.41421356237309503
10
92.725000000000009
20
-2.8336043162150473
10
92.725000000000009
20
-15.833604316215048
42
-0.41421356237309503
10
92.224999999999994
20
-16.333604316215048
10
79.224999999999994
20
-16.333604316215048
42
-0.41421356237309503
10
78.724999999999994
20
-15.833604316215048
10
78.724999999999994
20
-2.8336043162150473
42
-0.41421356237309503
0
LWPOLYLINE
5
103
100
AcDbEntity
8
0
100
AcDbPolyline
90
8
70
1
43
0.0
10
41.125
20
-2.3336043162150468
42
0.41421356237309503
10
40.625
20
-2.8336043162150459
10
40.625
20
-15.833604316215048
42
0.41421356237309503
10
41.125
20
-16.333604316215045
10
54.125000000000007
20
-16.333604316215048
42
0.41421356237309503
10
54.625
20
-15.833604316215052
10
54.625
20
-2.8336043162150473
42
0.41421356237309503
10
54.125000000000007
20
-2.3336043162150473
0
LWPOLYLINE
5
104
100
AcDbEntity
8
0
100
AcDbPolyline
90
8
70
1
43
0.0
10
98.275000000000006
20
-2.3336043162150473
10
111.27500000000001
20
-2.3336043162150402
42
-0.41421356237309503
10
111.77500000000002
20
-2.8336043162150473
10
111.77500000000002
20
-15.833604316215048
42
-0.41421356237309503
10
111.27500000000001
20
-16.333604316215048
10
98.275000000000006
20
-16.333604316215055
42
-0.41421356237309503
10
97.775000000000006
20
-15.833604316215048
10
97.775000000000006
20
-2.8336043162150473
42
-0.41421356237309503
0
LWPOLYLINE
5
105
100
AcDbEntity
8
0
100
AcDbPolyline
90
8
70
1
43
0.0
10
22.074999999999999
20
-2.3336043162150473
10
35.075000000000003
20
-2.333604316215049
42
-0.41421356237309503
10
35.575000000000003
20
-2.8336043162150473
10
35.575000000000003
20
-15.833604316215048
42
-0.41421356237309503
10
35.075000000000003
20
-16.333604316215048
10
22.074999999999999
20
-16.333604316215048
42
-0.41421356237309503
10
21.575000000000003
20
-15.833604316215048
10
21.575000000000003
20
-2.8336043162150473
42
-0.41421356237309503
0
LWPOLYLINE
5
106
100
AcDbEntity
8
0
100
AcDbPolyline
90
8
70
1
43
0.0
10
117.32500000000002
20
-2.3336043162150468
42
0.41421356237309503
10
116.82500000000002
20
-2.8336043162150459
10
116.82500000000002
20
-15.833604316215048
42
0.41421356237309503
10
117.32500000000002
20
-16.333604316215048
10
130.32499999999999
20
-16.333604316215048
42
0.41421356237309503
10
130.82499999999999
20
-15.833604316215052
10
130.82499999999999
20
-2.8336043162150473
42
0.41421356237309503
10
130.32499999999999
20
-2.3336043162150473
0
LWPOLYLINE
5
107
100
AcDbEntity
8
0
100
AcDbPolyline
90
8
70
1
43
0.0
10
3.0249999999999999
20
-2.3336043162150473
10
16.024999999999999
20
-2.3336043162150464
42
-0.41421356237309503
10
16.525000000000002
20
-2.8336043162150473
10
16.524999999999999
20
-15.833604316215048
42
-0.41421356237309503
10
16.024999999999999
20
-16.333604316215048
10
3.0249999999999999
20
-16.333604316215048
42
-0.41421356237309503
10
2.5249999999999999
20
-15.833604316215048
10
2.5250000000000004
20
-2.8336043162150473
42
-0.41421356237309503
0
LWPOLYLINE
5
108
100
AcDbEntity
8
0
100
AcDbPolyline
90
8
70
1
43
0.0
10
5.40625
20
-21.383604316215049
10
18.40625
20
-21.383604316215042
42
-0.41421356237309503
10
18.906250000000004
20
-21.883604316215045
10
18.90625
20
-34.883604316215049
42
-0.41421356237309503
10
18.40625
20
-35.383604316215049
10
5.4062499999999991
20
-35.383604316215049
42
-0.41421356237309437
10
4.90625
20
-34.883604316215049
10
4.9062500000000018
20
-21.883604316215045
42
-0.41421356237309503
0
LWPOLYLINE
5
109
100
AcDbEntity
8
0
100
AcDbPolyline
90
8
70
1
43
0.0
10
136.375
20
-2.3336043162150473
10
149.375
20
-2.3336043162150402
42
-0.41421356237309503
10
149.875
20
-2.8336043162150473
10
149.875
20
-15.833604316215048
42
-0.41421356237309503
10
149.375
20
-16.333604316215048
10
136.375
20
-16.333604316215055
42
-0.41421356237309503
10
135.875
20
-15.833604316215048
10
135.875
20
-2.8336043162150473
42
-0.41421356237309503
0
LWPOLYLINE
5
110
100
AcDbEntity
8
0
100
AcDbPolyline
90
8
70
1
43
0.0
10
212.57499999999999
20
-2.3336043162150473
10
225.57500000000002
20
-2.3336043162150402
42
-0.41421356237309503
10
226.07500000000002
20
-2.8336043162150473
10
226.07500000000002
20
-15.833604316215048
42
-0.41421356237309503
10
225.57500000000002
20
-16.333604316215048
10
212.57499999999999
20
-16.333604316215055
42
-0.41421356237309503
10
212.07499999999999
20
-15.833604316215048
10
212.07499999999999
20
-2.8336043162150473
42
-0.41421356237309503
0
LWPOLYLINE
5
111
100
AcDbEntity
8
0
100
AcDbPolyline
90
8
70
1
43
0.0
10
193.52500000000003
20
-2.3336043162150473
10
206.52500000000003
20
-2.3336043162150402
42
-0.41421356237309503
10
207.02500000000003
20
-2.8336043162150473
10
207.02500000000003
20
-15.833604316215048
42
-0.41421356237309503
10
206.52500000000003
20
-16.333604316215048
10
193.52500000000003
20
-16.333604316215055
42
-0.41421356237309503
10
193.02500000000003
20
-15.833604316215048
10
193.02500000000003
20
-2.8336043162150473
42
-0.41421356237309503
0
LWPOLYLINE
5
112
100
AcDbEntity
8
0
100
AcDbPolyline
90
8
70
1
43
0.0
10
160.1875
20
-21.383604316215049
10
173.1875
20
-21.383604316215038
42
-0.41421356237309503
10
173.68750000000003
20
-21.883604316215045
10
173.68750000000003
20
-34.883604316215049
42
-0.41421356237309503
10
173.1875
20
-35.383604316215049
10
160.1875
20
-35.383604316215056
42
-0.41421356237309503
10
159.6875
20
-34.883604316215049
10
159.6875
20
-21.883604316215045
42
-0.41421356237309503
0
LWPOLYLINE
5
113
100
AcDbEntity
8
0
100
AcDbPolyline
90
8
70
1
43
0.0
10
174.47500000000002
20
-2.3336043162150473
10
187.47499999999999
20
-2.3336043162150402
42
-0.41421356237309503
10
187.97499999999999
20
-2.8336043162150473
10
187.97499999999999
20
-15.833604316215048
42
-0.41421356237309503
10
187.47499999999999
20
-16.333604316215048
10
174.47500000000002
20
-16.333604316215055
42
-0.41421356237309503
10
173.97500000000002
20
-15.833604316215048
10
173.97500000000002
20
-2.8336043162150473
42
-0.41421356237309503
0
LWPOLYLINE
5
114
100
AcDbEntity
8
0
100
AcDbPolyline
90
8
70
1
43
0.0
10
155.42500000000001
20
-2.3336043162150468
42
0.41421356237309503
10
154.92500000000001
20
-2.8336043162150459
10
154.92500000000001
20
-15.833604316215048
42
0.41421356237309503
10
155.42500000000001
20
-16.333604316215052
10
168.42500000000001
20
-16.333604316215048
42
0.41421356237309503
10
168.92500000000001
20
-15.833604316215052
10
168.92500000000001
20
-2.8336043162150473
42
0.41421356237309503
10
168.42500000000001
20
-2.3336043162150473
0
LWPOLYLINE
5
115
100
AcDbEntity
8
0
100
AcDbPolyline
90
8
70
1
43
0.0
10
250.67500000000001
20
-2.3336043162150473
10
263.67500000000001
20
-2.3336043162150402
42
-0.41421356237309503
10
264.17500000000007
20
-2.8336043162150473
10
264.17500000000007
20
-15.833604316215048
42
-0.41421356237309503
10
263.67500000000001
20
-16.333604316215048
10
250.67500000000001
20
-16.333604316215055
42
-0.41421356237309503
10
250.17500000000001
20
-15.833604316215048
10
250.17500000000001
20
-2.8336043162150473
42
-0.41421356237309503
0
LWPOLYLINE
5
116
100
AcDbEntity
8
0
100
AcDbPolyline
90
8
70
1
43
0.0
10
231.625
20
-2.3336043162150468
42
0.41421356237309503
10
231.125
20
-2.8336043162150459
10
231.125
20
-15.833604316215048
42
0.41421356237309503
10
231.625
20
-16.333604316215048
10
244.62500000000003
20
-16.333604316215048
42
0.41421356237309503
10
245.12500000000003
20
-15.833604316215052
10
245.12500000000003
20
-2.8336043162150473
42
0.41421356237309503
10
244.62500000000003
20
-2.3336043162150473
0
LWPOLYLINE
5
117
100
AcDbEntity
8
0
100
AcDbPolyline
90
8
70
1
43
0.0
10
59.387500000000003
20
-21.883604316215045
10
59.387500000000003
20
-34.883604316215049
42
-0.41421356237309503
10
58.88750000000001
20
-35.383604316215049
10
45.887500000000003
20
-35.383604316215049
42
-0.41421356237309503
10
45.387500000000003
20
-34.883604316215049
10
45.387500000000003
20
-21.883604316215045
42
-0.41421356237309503
10
45.887500000000003
20
-21.383604316215049
10
58.88750000000001
20
-21.383604316215049
42
-0.41421356237309503
0
LWPOLYLINE
5
118
100
AcDbEntity
8
0
100
AcDbPolyline
90
8
70
1
43
0.0
10
141.13749999999999
20
-21.383604316215049
10
154.13749999999999
20
-21.383604316215038
42
-0.41421356237309503
10
154.63750000000002
20
-21.883604316215045
10
154.63750000000002
20
-34.883604316215049
42
-0.41421356237309503
10
154.13749999999999
20
-35.383604316215049
10
141.13749999999999
20
-35.383604316215056
42
-0.41421356237309503
10
140.63749999999999
20
-34.883604316215049
10
140.63749999999999
20
-21.883604316215045
42
-0.41421356237309503
0
LWPOLYLINE
5
119
100
AcDbEntity
8
0
100
AcDbPolyline
90
8
70
1
43
0.0
10
64.9375
20
-21.383604316215049
10
77.9375
20
-21.383604316215049
42
-0.41421356237309503
10
78.4375
20
-21.883604316215045
10
78.4375
20
-34.883604316215049
42
-0.41421356237309503
10
77.9375
20
-35.383604316215049
10
64.9375
20
-35.383604316215049
42
-0.41421356237309503
10
64.4375
20
-34.883604316215049
10
64.4375
20
-21.883604316215045
42
-0.41421356237309503
0
LWPOLYLINE
5
120
100
AcDbEntity
8
0
100
AcDbPolyline
90
8
70
1
43
0.0
10
26.837499999999999
20
-21.383604316215049
10
39.837499999999999
20
-21.383604316215042
42
-0.41421356237309503
10
40.337500000000006
20
-21.883604316215045
10
40.337499999999991
20
-34.883604316215049
42
-0.41421356237309503
10
39.837499999999999
20
-35.383604316215049
10
26.837499999999999
20
-35.383604316215049
42
-0.41421356237309503
10
26.337499999999999
20
-34.883604316215049
10
26.337499999999999
20
-21.883604316215045
42
-0.41421356237309503
0
LWPOLYLINE
5
121
100
AcDbEntity
8
0
100
AcDbPolyline
90
8
70
1
43
0.0
10
83.987499999999997
20
-21.383604316215049
10
96.987500000000011
20
-21.383604316215038
42
-0.41421356237309503
10
97.487500000000011
20
-21.883604316215045
10
97.487500000000011
20
-34.883604316215049
42
-0.41421356237309503
10
96.987500000000011
20
-35.383604316215049
10
83.987499999999997
20
-35.383604316215056
42
-0.41421356237309503
10
83.487499999999983
20
-34.883604316215049
10
83.487499999999983
20
-21.883604316215045
42
-0.41421356237309503
0
LWPOLYLINE
5
122
100
AcDbEntity
8
0
100
AcDbPolyline
90
8
70
1
43
0.0
10
103.03750000000001
20
-21.383604316215049
10
116.03749999999999
20
-21.383604316215038
42
-0.41421356237309503
10
116.53750000000001
20
-21.883604316215045
10
116.53749999999999
20
-34.883604316215049
42
-0.41421356237309503
10
116.03749999999999
20
-35.383604316215049
10
103.03750000000001
20
-35.383604316215056
42
-0.41421356237309503
10
102.53749999999999
20
-34.883604316215049
10
102.53749999999999
20
-21.883604316215045
42
-0.41421356237309503
0
LWPOLYLINE
5
123
100
AcDbEntity
8
0
100
AcDbPolyline
90
8
70
1
43
0.0
10
122.08750000000002
20
-21.383604316215049
10
135.08750000000001
20
-21.383604316215038
42
-0.41421356237309503
10
135.58750000000001
20
-21.883604316215045
10
135.58750000000001
20
-34.883604316215049
42
-0.41421356237309503
10
135.08750000000001
20
-35.383604316215049
10
122.08750000000002
20
-35.383604316215056
42
-0.41421356237309503
10
121.58750000000001
20
-34.883604316215049
10
121.58750000000001
20
-21.883604316215045
42
-0.41421356237309503
0
LWPOLYLINE
5
124
100
AcDbEntity
8
0
100
AcDbPolyline
90
8
70
1
43
0.0
10
257.03125000000006
20
-21.883604316215045
10
257.03125000000006
20
-34.883604316215049
42
-0.41421356237309503
10
256.53125
20
-35.383604316215049
10
243.53125000000003
20
-35.383604316215056
42
-0.41421356237309503
10
243.03125
20
-34.883604316215049
10
243.03125
20
-21.883604316215045
42
-0.41421356237309503
10
243.53125000000003
20
-21.383604316215049
10
256.53125
20
-21.383604316215038
42
-0.41421356237309503
0
LWPOLYLINE
5
125
100
AcDbEntity
8
0
100
AcDbPolyline
90
8
70
1
43
0.0
10
217.33750000000001
20
-21.383604316215049
10
230.33750000000001
20
-21.383604316215038
42
-0.41421356237309503
10
230.83750000000003
20
-21.883604316215045
10
230.83750000000003
20
-34.883604316215049
42
-0.41421356237309503
10
230.33750000000001
20
-35.383604316215049
10
217.33750000000001
20
-35.383604316215056
42
-0.41421356237309503
10
216.83750000000001
20
-34.883604316215049
10
216.83750000000001
20
-21.883604316215045
42
-0.41421356237309503
0
LWPOLYLINE
5
126
100
AcDbEntity
8
0
100
AcDbPolyline
90
8
70
1
43
0.0
10
36.362499999999997
20
-40.433604316215053
42
0.41421356237309503
10
35.862500000000004
20
-40.933604316215046
10
35.862500000000004
20
-53.933604316215039
42
0.41421356237309503
10
36.362499999999997
20
-54.433604316215039
10
49.362500000000004
20
-54.433604316215039
42
0.41421356237309503
10
49.862499999999997
20
-53.933604316215039
10
49.862499999999997
20
-40.933604316215046
42
0.41421356237309503
10
49.362500000000004
20
-40.433604316215053
0
LWPOLYLINE
5
127
100
AcDbEntity
8
0
100
AcDbPolyline
90
8
70
1
43
0.0
10
68.912499999999994
20
-40.933604316215046
10
68.912499999999994
20
-53.933604316215039
42
-0.41421356237309503
10
68.412499999999994
20
-54.433604316215039
10
55.412500000000009
20
-54.433604316215039
42
-0.41421356237309503
10
54.912500000000009
20
-53.933604316215039
10
54.912500000000016
20
-40.933604316215046
42
-0.41421356237309503
10
55.412500000000009
20
-40.433604316215053
10
68.412499999999994
20
-40.433604316215046
42
-0.41421356237309503
0
LWPOLYLINE
5
128
100
AcDbEntity
8
0
100
AcDbPolyline
90
8
70
1
43
0.0
10
198.28749999999999
20
-21.383604316215049
10
211.28749999999999
20
-21.383604316215038
42
-0.41421356237309503
10
211.78750000000002
20
-21.883604316215045
10
211.78750000000002
20
-34.883604316215049
42
-0.41421356237309503
10
211.28749999999999
20
-35.383604316215049
10
198.28749999999999
20
-35.383604316215056
42
-0.41421356237309503
10
197.78749999999999
20
-34.883604316215049
10
197.78749999999999
20
-21.883604316215045
42
-0.41421356237309503
0
LWPOLYLINE
5
129
100
AcDbEntity
8
0
100
AcDbPolyline
90
8
70
1
43
0.0
10
179.23750000000001
20
-21.383604316215049
10
192.23750000000001
20
-21.383604316215038
42
-0.41421356237309503
10
192.73750000000004
20
-21.883604316215045
10
192.73750000000004
20
-34.883604316215049
42
-0.41421356237309503
10
192.23750000000001
20
-35.383604316215049
10
179.23750000000001
20
-35.383604316215056
42
-0.41421356237309503
10
178.73750000000001
20
-34.883604316215049
10
178.73750000000001
20
-21.883604316215045
42
-0.41421356237309503
0
LWPOLYLINE
5
130
100
AcDbEntity
8
0
100
AcDbPolyline
90
8
70
1
43
0.0
10
87.96250000000002
20
-40.933604316215046
10
87.962500000000006
20
-53.933604316215039
42
-0.41421356237309503
10
87.46250000000002
20
-54.433604316215039
10
74.462500000000006
20
-54.433604316215039
42
-0.41421356237309503
10
73.962500000000006
20
-53.933604316215039
10
73.96250000000002
20
-40.933604316215046
42
-0.41421356237309503
10
74.462500000000006
20
-40.433604316215053
10
87.46250000000002
20
-40.433604316215039
42
-0.41421356237309503
0
LWPOLYLINE
5
131
100
AcDbEntity
8
0
100
AcDbPolyline
90
8
70
1
43
0.0
10
93.512500000000003
20
-40.433604316215053
10
106.51250000000002
20
-40.433604316215039
42
-0.41421356237309503
10
107.01250000000002
20
-40.933604316215046
10
107.01250000000002
20
-53.933604316215039
42
-0.41421356237309503
10
106.51250000000002
20
-54.433604316215039
10
93.512500000000003
20
-54.433604316215053
42
-0.41421356237309503
10
93.012499999999989
20
-53.933604316215039
10
93.012500000000017
20
-40.933604316215046
42
-0.41421356237309503
0
LWPOLYLINE
5
132
100
AcDbEntity
8
0
100
AcDbPolyline
90
8
70
1
43
0.0
10
169.71250000000001
20
-40.433604316215053
10
182.71250000000003
20
-40.433604316215039
42
-0.41421356237309503
10
183.21250000000003
20
-40.933604316215046
10
183.21250000000003
20
-53.933604316215039
42
-0.41421356237309503
10
182.71250000000003
20
-54.433604316215039
10
169.71250000000001
20
-54.433604316215053
42
-0.41421356237309503
10
169.21250000000001
20
-53.933604316215039
10
169.21250000000001
20
-40.933604316215046
42
-0.41421356237309503
0
LWPOLYLINE
5
133
100
AcDbEntity
8
0
100
AcDbPolyline
90
8
70
1
43
0.0
10
131.61250000000001
20
-40.433604316215053
10
144.61250000000001
20
-40.433604316215039
42
-0.41421356237309503
10
145.11250000000001
20
-40.933604316215046
10
145.11250000000001
20
-53.933604316215039
42
-0.41421356237309503
10
144.61250000000001
20
-54.433604316215039
10
131.61250000000001
20
-54.433604316215053
42
-0.41421356237309503
10
131.11250000000001
20
-53.933604316215039
10
131.11250000000004
20
-40.933604316215046
42
-0.41421356237309503
0
LWPOLYLINE
5
134
100
AcDbEntity
8
0
100
AcDbPolyline
90
8
70
1
43
0.0
10
229.24375000000001
20
-40.433604316215053
42
0.41421356237309503
10
228.74375000000001
20
-40.933604316215046
10
228.74375000000001
20
-53.933604316215039
42
0.41421356237309503
10
229.24375000000001
20
-54.433604316215039
10
242.24375000000003
20
-54.433604316215039
42
0.41421356237309503
10
242.74375000000003
20
-53.933604316215039
10
242.74375000000003
20
-40.933604316215046
42
0.41421356237309503
10
242.24375000000003
20
-40.433604316215053
0
LWPOLYLINE
5
135
100
AcDbEntity
8
0
100
AcDbPolyline
90
8
70
1
43
0.0
10
250.67500000000001
20
-40.433604316215053
10
263.67500000000001
20
-40.433604316215039
42
-0.41421356237309503
10
264.17500000000007
20
-40.933604316215046
10
264.17500000000007
20
-53.933604316215039
42
-0.41421356237309503
10
263.67500000000001
20
-54.433604316215039
10
250.67500000000001
20
-54.433604316215053
42
-0.41421356237309503
10
250.17500000000001
20
-53.933604316215039
10
250.17500000000007
20
-40.933604316215046
42
-0.41421356237309503
0
LWPOLYLINE
5
136
100
AcDbEntity
8
0
100
AcDbPolyline
90
8
70
1
43
0.0
10
150.66249999999999
20
-40.433604316215053
10
163.66250000000002
20
-40.433604316215039
42
-0.41421356237309503
10
164.16250000000002
20
-40.933604316215046
10
164.16250000000002
20
-53.933604316215039
42
-0.41421356237309503
10
163.66250000000002
20
-54.433604316215039
10
150.66249999999999
20
-54.433604316215053
42
-0.41421356237309503
10
150.16249999999999
20
-53.933604316215039
10
150.16250000000002
20
-40.933604316215046
42
-0.41421356237309503
0
LWPOLYLINE
5
137
100
AcDbEntity
8
0
100
AcDbPolyline
90
8
70
1
43
0.0
10
188.76249999999999
20
-40.433604316215053
10
201.76249999999999
20
-40.433604316215039
42
-0.41421356237309503
10
202.26249999999999
20
-40.933604316215046
10
202.26249999999999
20
-53.933604316215039
42
-0.41421356237309503
10
201.76249999999999
20
-54.433604316215039
10
188.76249999999999
20
-54.433604316215053
42
-0.41421356237309503
10
188.26249999999999
20
-53.933604316215039
10
188.26250000000002
20
-40.933604316215046
42
-0.41421356237309503
0
LWPOLYLINE
5
138
100
AcDbEntity
8
0
100
AcDbPolyline
90
8
70
1
43
0.0
10
112.56250000000001
20
-40.433604316215053
10
125.5625
20
-40.433604316215039
42
-0.41421356237309503
10
126.06250000000001
20
-40.933604316215046
10
126.0625
20
-53.933604316215039
42
-0.41421356237309503
10
125.5625
20
-54.433604316215039
10
112.56250000000001
20
-54.433604316215053
42
-0.41421356237309503
10
112.0625
20
-53.933604316215039
10
112.06250000000003
20
-40.933604316215046
42
-0.41421356237309503
0
LWPOLYLINE
5
139
100
AcDbEntity
8
0
100
AcDbPolyline
90
8
70
1
43
0.0
10
207.8125
20
-40.433604316215053
10
220.8125
20
-40.433604316215039
42
-0.41421356237309503
10
221.3125
20
-40.933604316215046
10
221.3125
20
-53.933604316215039
42
-0.41421356237309503
10
220.8125
20
-54.433604316215039
10
207.8125
20
-54.433604316215053
42
-0.41421356237309503
10
207.3125
20
-53.933604316215039
10
207.31250000000003
20
-40.933604316215046
42
-0.41421356237309503
0
LWPOLYLINE
5
140
100
AcDbEntity
8
0
100
AcDbPolyline
90
8
70
1
43
0.0
10
26.837499999999999
20
-59.48360431621505
10
39.837499999999999
20
-59.483604316215036
42
-0.41421356237309503
10
40.337500000000006
20
-59.98360431621505
10
40.337499999999991
20
-72.98360431621505
42
-0.41421356237309503
10
39.837499999999999
20
-73.483604316215036
10
26.837499999999999
20
-73.483604316215036
42
-0.41421356237309503
10
26.337499999999999
20
-72.98360431621505
10
26.337499999999999
20
-59.98360431621505
42
-0.41421356237309503
0
LWPOLYLINE
5
141
100
AcDbEntity
8
0
100
AcDbPolyline
90
8
70
1
43
0.0
10
205.43125000000003
20
-59.48360431621505
10
218.43125000000001
20
-59.483604316215036
42
-0.41421356237309503
10
218.93125000000001
20
-59.98360431621505
10
218.93125000000001
20
-72.98360431621505
42
-0.41421356237309503
10
218.43125000000001
20
-73.483604316215036
10
205.43125000000003
20
-73.48360431621505
42
-0.41421356237309503
10
204.93125000000003
20
-72.98360431621505
10
204.93125000000003
20
-59.98360431621505
42
-0.41421356237309503
0
LWPOLYLINE
5
142
100
AcDbEntity
8
0
100
AcDbPolyline
90
8
70
1
43
0.0
10
48.268750000000004
20
-59.48360431621505
10
61.268749999999997
20
-59.48360431621505
42
-0.41421356237309503
10
61.768749999999997
20
-59.98360431621505
10
61.768749999999997
20
-72.98360431621505
42
-0.41421356237309503
10
61.268749999999997
20
-73.483604316215036
10
48.268750000000004
20
-73.483604316215036
42
-0.41421356237309503
10
47.768750000000004
20
-72.98360431621505
10
47.768750000000004
20
-59.98360431621505
42
-0.41421356237309503
0
LWPOLYLINE
5
143
100
AcDbEntity
8
0
100
AcDbPolyline
90
8
70
1
43
0.0
10
240.36250000000001
20
-59.98360431621505
10
240.36250000000001
20
-72.98360431621505
42
-0.41421356237309503
10
239.86250000000001
20
-73.483604316215036
10
226.86250000000001
20
-73.48360431621505
42
-0.41421356237309503
10
226.36250000000001
20
-72.98360431621505
10
226.36250000000001
20
-59.98360431621505
42
-0.41421356237309503
10
226.86250000000001
20
-59.48360431621505
10
239.86250000000001
20
-59.483604316215036
42
-0.41421356237309503
0
LWPOLYLINE
5
144
100
AcDbEntity
8
0
100
AcDbPolyline
90
64
70
1
43
0.0
10
79.5274
20
-61.294004316215052
10
79.527400000000014
20
-63.683604316215053
42
0.41421356237309503
10
80.027400000000014
20
-64.183604316215053
10
126.34999999999999
20
-64.183604316215053
10
126.35000000000002
20
-59.98360431621505
42
-0.41421356237309503
10
126.85000000000001
20
-59.48360431621505
10
139.84999999999999
20
-59.483604316215036
42
-0.41421356237309503
10
140.34999999999999
20
-59.98360431621505
10
140.34999999999999
20
-64.183604316215053
10
186.67259999999999
20
-64.183604316215053
42
0.41421356237309503
10
187.17259999999999
20
-63.683604316215053
10
187.17259999999999
20
-61.294004316215052
42
-0.41421356237309503
10
187.67259999999999
20
-60.794004316215052
10
193.32740000000001
20
-60.794004316215045
42
-0.41421356237309503
10
193.82740000000001
20
-61.294004316215052
10
193.82740000000001
20
-64.197604316215049
10
194.191
20
-64.197604316215035
42
-0.41421356237309503
10
194.691
20
-64.697604316215049
10
194.69099999999997
20
-66.99160431621506
10
194.32740000000001
20
-66.99160431621506
42
0.41421356237309503
10
193.82740000000001
20
-67.49160431621506
10
193.82740000000001
20
-72.587604316215049
42
-0.41421356237309503
10
193.32740000000001
20
-73.087604316215049
10
192.524
20
-73.087604316215049
42
0.41421356237309503
10
192.024
20
-73.587604316215049
10
192.024
20
-73.756004316215055
42
-0.41421356237309503
10
191.524
20
-74.256004316215055
10
189.476
20
-74.256004316215055
42
-0.41421356237309503
10
188.976
20
-73.756004316215055
10
188.976
20
-73.587604316215049
42
0.41421356237309503
10
188.476
20
-73.087604316215049
10
187.67259999999999
20
-73.087604316215049
42
-0.41421356237309503
10
187.17259999999999
20
-72.587604316215049
10
187.17259999999999
20
-69.283604316215047
42
0.41421356237309503
10
186.67259999999999
20
-68.783604316215033
10
140.34999999999999
20
-68.783604316215047
10
140.34999999999999
20
-72.98360431621505
42
-0.41421356237309503
10
139.84999999999999
20
-73.483604316215036
10
126.85000000000001
20
-73.48360431621505
42
-0.41421356237309503
10
126.34999999999999
20
-72.98360431621505
10
126.34999999999999
20
-68.783604316215047
10
80.027400000000014
20
-68.783604316215047
42
0.41421356237309503
10
79.527400000000014
20
-69.283604316215047
10
79.5274
20
-72.587604316215049
42
-0.41421356237309503
10
79.0274
20
-73.087604316215049
10
78.22399999999999
20
-73.087604316215049
42
0.41421356237309503
10
77.72399999999999
20
-73.587604316215049
10
77.72399999999999
20
-73.756004316215055
42
-0.41421356237309503
10
77.22399999999999
20
-74.256004316215055
10
75.176000000000002
20
-74.256004316215055
42
-0.41421356237309503
10
74.676000000000016
20
-73.756004316215055
10
74.676000000000002
20
-73.587604316215049
42
0.41421356237309503
10
74.176000000000002
20
-73.087604316215064
10
73.372600000000006
20
-73.087604316215049
42
-0.41421356237309503
10
72.872600000000006
20
-72.587604316215049
10
72.872600000000006
20
-67.49160431621506
42
0.41421356237309503
10
72.372600000000006
20
-66.99160431621506
10
72.009000000000015
20
-66.99160431621506
10
72.009000000000015
20
-64.697604316215049
42
-0.41421356237309503
10
72.509
20
-64.197604316215049
10
72.872600000000006
20
-64.197604316215049
10
72.872600000000006
20
-61.294004316215052
42
-0.41421356237309503
10
73.372600000000006
20
-60.794004316215052
10
79.0274
20
-60.794004316215052
42
-0.41421356237309503
0
LWPOLYLINE
5
145
100
AcDbEntity
8
0
100
AcDbPolyline
90
8
70
1
43
0.0
10
23.668749999999999
20
-40.933604316215046
10
23.668749999999999
20
-53.933604316215039
42
-0.41421356237309503
10
23.168749999999999
20
-54.433604316215039
10
10.168749999999999
20
-54.433604316215039
42
-0.41421356237309503
10
9.6687499999999993
20
-53.933604316215039
10
9.6687500000000099
20
-40.933604316215046
42
-0.41421356237309503
10
10.168749999999999
20
-40.433604316215053
10
23.168749999999999
20
-40.433604316215046
42
-0.41421356237309503
0
ENDSEC
0
SECTION
2
OBJECTS
0
DICTIONARY
5
C
100
AcDbDictionary
3
ACAD_GROUP
350
D
3
ACAD_MLINESTYLE
350
17
0
DICTIONARY
5
D
100
AcDbDictionary
0
DICTIONARY
5
1A
330
C
100
AcDbDictionary
0
DICTIONARY
5
17
100
AcDbDictionary
0
ENDSEC
0
EOF
