0
SECTION
2
HEADER
9
$INSUNITS
70
4
9
$ACADVER
1
AC1014
9
$HANDSEED
5
FFFF
0
ENDSEC
0
SECTION
2
TABLES
0
TABLE
2
VPORT
5
8
100
AcDbSymbolTable
0
ENDTAB
0
TABLE
2
LTYPE
5
5
100
AcDbSymbolTable
0
LTYPE
5
14
100
AcDbSymbolTableRecord
100
AcDbLinetypeTableRecord
2
BYBLOCK
70
0
0
LTYPE
5
15
100
AcDbSymbolTableRecord
100
AcDbLinetypeTableRecord
2
BYLAYER
70
0
0
ENDTAB
0
TABLE
2
LAYER
5
2
100
AcDbSymbolTable
70
2
0
LAYER
5
50
100
AcDbSymbolTableRecord
100
AcDbLayerTableRecord
2
0
70
0
6
CONTINUOUS
0
ENDTAB
0
TABLE
2
STYLE
5
3
100
AcDbSymbolTable
70
1
0
STYLE
5
11
100
AcDbSymbolTableRecord
100
AcDbTextStyleTableRecord
2
STANDARD
70
0
0
ENDTAB
0
TABLE
2
VIEW
5
6
100
AcDbSymbolTable
70
0
0
ENDTAB
0
TABLE
2
UCS
5
7
100
AcDbSymbolTable
70
0
0
ENDTAB
0
TABLE
2
APPID
5
9
100
AcDbSymbolTable
70
2
0
APPID
5
12
100
AcDbSymbolTableRecord
100
AcDbRegAppTableRecord
2
ACAD
70
0
0
ENDTAB
0
TABLE
2
DIMSTYLE
5
A
100
AcDbSymbolTable
70
1
0
ENDTAB
0
TABLE
2
BLOCK_RECORD
5
1
100
AcDbSymbolTable
70
1
0
BLOCK_RECORD
5
1F
100
AcDbSymbolTableRecord
100
AcDbBlockTableRecord
2
*MODEL_SPACE
0
BLOCK_RECORD
5
1B
100
AcDbSymbolTableRecord
100
AcDbBlockTableRecord
2
*PAPER_SPACE
0
ENDTAB
0
ENDSEC
0
SECTION
2
BLOCKS
0
BLOCK
5
20
100
AcDbEntity
100
AcDbBlockBegin
2
*MODEL_SPACE
0
ENDBLK
5
21
100
AcDbEntity
100
AcDbBlockEnd
0
BLOCK
5
1C
100
AcDbEntity
100
AcDbBlockBegin
2
*PAPER_SPACE
0
ENDBLK
5
1D
100
AcDbEntity
100
AcDbBlockEnd
0
ENDSEC
0
SECTION
2
ENTITIES
0
LWPOLYLINE
5
100
100
AcDbEntity
8
0
100
AcDbPolyline
90
52
70
1
43
0.0
10
0
20
-74.200000000000003
10
0
20
-2.0000000000000022
42
-0.41421356237309531
10
2.0000000000000018
20
0
10
25.00000037252903
20
0
42
0.99999962747103943
10
25
20
1.0000000000001488
10
17.000000000000007
20
1.0000000000000009
42
-0.41421356237309537
10
15.000000000000004
20
3.0000000000000004
42
-0.4142135623730947
10
17
20
5
10
45
20
5
10
72.999999999999986
20
4.9999999999999973
42
-0.41421356237309404
10
75
20
2.9999999999999933
42
-0.41421356237309503
10
73
20
1.0000000000000004
10
65
20
1.0000000000000018
42
1.0000009685759466
10
65.000000968575478
20
0
10
211.22500000000002
20
7.2164496600635175e-15
42
0.99999999999999989
10
211.22500000000002
20
1.0000000000000073
10
203.22500000000002
20
1.0000000000000053
42
-0.4142135623730957
10
201.22500000000002
20
3.0000000000000027
42
-0.41421356237309503
10
203.22500000000002
20
5
10
231.22500000000002
20
5
10
259.22500000000002
20
4.9999999999999956
42
-0.41421356237309503
10
261.22500000000002
20
3.0000000000000031
42
-0.41421356237309581
10
259.22500000000002
20
1.0000000000000044
10
251.22500000000002
20
0.99999999999998956
42
0.99999999999999989
10
251.22499999999962
20
-1.0477729794899915e-14
10
274.22500000000002
20
-4.163336342344337e-15
42
-0.41421356237309576
10
276.22500000000002
20
-2.0000000000000018
10
276.22500000000002
20
-74.200000000000017
42
-0.41421356237309503
10
274.22500000000002
20
-76.200000000000017
10
233.22499999999977
20
-76.200000000000017
42
0.99999999999999989
10
233.22500000000002
20
-77.200000000000003
10
241.22500000000002
20
-77.200000000000017
42
-0.41421356237309503
10
243.22500000000002
20
-79.200000000000003
42
-0.41421356237309503
10
241.22500000000002
20
-81.200000000000031
10
213.22500000000002
20
-81.200000000000031
10
185.22500000000002
20
-81.200000000000017
42
-0.41421356237309503
10
183.22500000000002
20
-79.200000000000003
42
-0.41421356237309503
10
185.22500000000002
20
-77.200000000000017
10
193.22500000000002
20
-77.200000000000003
42
0.99999999999999989
10
193.22500000000002
20
-76.200000000000017
10
83.000005424022717
20
-76.200000000000017
42
0.99999999999999989
10
83.000005424022717
20
-77.200000000000003
10
91.000005424022689
20
-77.199999999999989
42
-0.41421356237309503
10
93.000005424022703
20
-79.200000000000017
42
-0.4142135623730937
10
91.000005424022689
20
-81.200000000000031
10
63.000005424022689
20
-81.200000000000031
10
35.000005424022696
20
-81.200000000000017
42
-0.41421356237309825
10
33.000005424022696
20
-79.200000000000003
42
-0.4142135623730937
10
35.000005424022696
20
-77.200000000000003
10
43.000005424022696
20
-77.200000000000003
42
0.99999999999999989
10
43.000005424022696
20
-76.200000000000017
10
2.0000000000000009
20
-76.200000000000017
42
-0.41421356237309354
0
LWPOLYLINE
5
101
100
AcDbEntity
8
0
100
AcDbPolyline
90
8
70
1
43
0.0
10
226.86250000000001
20
-59.675000000000004
42
0.41421356237309503
10
226.36250000000001
20
-60.174999999999997
10
226.36250000000001
20
-73.174999999999997
42
0.41421356237309503
10
226.86250000000001
20
-73.674999999999997
10
242.24375000000003
20
-73.674999999999997
42
0.41421356237309503
10
242.74375000000003
20
-73.174999999999997
10
242.74375000000003
20
-60.174999999999997
42
0.41421356237309503
10
242.24375000000003
20
-59.675000000000004
0
ARC
5
102
100
AcDbEntity
8
0
100
AcDbCircle
10
220.8125
20
-60.174999999999997
30
0
40
0.50000000000000711
210
0
220
0
230
1
100
AcDbArc
50
0
51
90
0
LINE
5
103
100
AcDbEntity
8
0
100
AcDbLine
10
221.3125
20
-60.174999999999997
30
0
11
221.3125
21
-73.174999999999997
31
0
0
ARC
5
104
100
AcDbEntity
8
0
100
AcDbCircle
10
220.8125
20
-73.174999999999997
30
0
40
0.49999999999999822
210
0
220
0
230
1
100
AcDbArc
50
-90
51
0
0
LWPOLYLINE
5
105
100
AcDbEntity
8
0
100
AcDbPolyline
90
8
70
1
43
0.0
10
118.41875000000002
20
-73.674999999999997
42
0.41421356237309503
10
118.91875000000002
20
-73.174999999999997
10
118.91875000000002
20
-60.174999999999997
42
0.41421356237309503
10
118.41875000000002
20
-59.675000000000004
10
105.41875000000002
20
-59.675000000000004
42
0.41421356237309503
10
104.91875
20
-60.174999999999997
10
104.91875
20
-73.174999999999997
42
0.41421356237309503
10
105.41875000000002
20
-73.674999999999997
0
LWPOLYLINE
5
106
100
AcDbEntity
8
0
100
AcDbPolyline
90
8
70
1
43
0.0
10
166.04375000000002
20
-73.674999999999997
42
0.41421356237309503
10
166.54375000000002
20
-73.174999999999997
10
166.54375000000002
20
-60.174999999999997
42
0.41421356237309503
10
166.04375000000002
20
-59.675000000000004
10
153.04374999999999
20
-59.675000000000004
42
0.41421356237309503
10
152.54374999999999
20
-60.174999999999997
10
152.54374999999999
20
-73.174999999999997
42
0.41421356237309503
10
153.04374999999999
20
-73.674999999999997
0
LWPOLYLINE
5
107
100
AcDbEntity
8
0
100
AcDbPolyline
90
8
70
1
43
0.0
10
69.700000000000003
20
-2.5249999999999999
10
82.700000000000017
20
-2.5249999999999928
42
-0.41421356237309503
10
83.200000000000003
20
-3.0249999999999999
10
83.200000000000017
20
-16.024999999999999
42
-0.41421356237309503
10
82.700000000000017
20
-16.524999999999999
10
69.700000000000003
20
-16.524999999999999
42
-0.41421356237309503
10
69.200000000000003
20
-16.024999999999999
10
69.200000000000003
20
-3.0249999999999999
42
-0.41421356237309503
0
LWPOLYLINE
5
108
100
AcDbEntity
8
0
100
AcDbPolyline
90
8
70
1
43
0.0
10
7.7875000000000005
20
-2.5249999999999999
10
20.787500000000001
20
-2.5250000000000017
42
-0.41421356237309503
10
21.287500000000001
20
-3.0249999999999999
10
21.287500000000001
20
-16.024999999999999
42
-0.41421356237309503
10
20.787500000000001
20
-16.524999999999999
10
7.7875000000000005
20
-16.525000000000002
42
-0.41421356237309503
10
7.2874999999999996
20
-16.024999999999999
10
7.2874999999999996
20
-3.0249999999999999
42
-0.41421356237309503
0
LWPOLYLINE
5
109
100
AcDbEntity
8
0
100
AcDbPolyline
90
8
70
1
43
0.0
10
31.100000000000001
20
-16.024999999999999
42
0.41421356237309503
10
31.600000000000001
20
-16.525000000000002
10
44.600000000000001
20
-16.525000000000002
42
0.41421356237309503
10
45.100000000000009
20
-16.024999999999999
10
45.099999999999994
20
-3.0249999999999999
42
0.41421356237309503
10
44.600000000000001
20
-2.5249999999999999
10
31.600000000000001
20
-2.5249999999999999
42
0.41421356237309503
10
31.100000000000001
20
-3.0249999999999999
0
LWPOLYLINE
5
110
100
AcDbEntity
8
0
100
AcDbPolyline
90
8
70
1
43
0.0
10
63.650000000000006
20
-16.525000000000002
42
0.41421356237309503
10
64.150000000000006
20
-16.024999999999999
10
64.150000000000006
20
-3.0249999999999999
42
0.41421356237309503
10
63.650000000000006
20
-2.5249999999999999
10
50.650000000000006
20
-2.5249999999999999
42
0.41421356237309503
10
50.150000000000006
20
-3.0249999999999999
10
50.150000000000006
20
-16.024999999999999
42
0.41421356237309503
10
50.650000000000006
20
-16.525000000000002
0
LWPOLYLINE
5
111
100
AcDbEntity
8
0
100
AcDbPolyline
90
8
70
1
43
0.0
10
120.8
20
-16.525000000000002
42
0.41421356237309503
10
121.30000000000001
20
-16.024999999999999
10
121.30000000000001
20
-3.0249999999999999
42
0.41421356237309503
10
120.8
20
-2.5249999999999999
10
107.80000000000001
20
-2.5249999999999999
42
0.41421356237309503
10
107.30000000000001
20
-3.0249999999999999
10
107.30000000000001
20
-16.024999999999999
42
0.41421356237309503
10
107.80000000000001
20
-16.525000000000002
0
LWPOLYLINE
5
112
100
AcDbEntity
8
0
100
AcDbPolyline
90
8
70
1
43
0.0
10
197.00000000000003
20
-16.525000000000002
42
0.41421356237309503
10
197.50000000000003
20
-16.024999999999999
10
197.50000000000003
20
-3.0249999999999999
42
0.41421356237309503
10
197.00000000000003
20
-2.5249999999999999
10
184.00000000000003
20
-2.5249999999999999
42
0.41421356237309503
10
183.5
20
-3.0249999999999999
10
183.5
20
-16.024999999999999
42
0.41421356237309503
10
184.00000000000003
20
-16.525000000000002
0
LWPOLYLINE
5
113
100
AcDbEntity
8
0
100
AcDbPolyline
90
8
70
1
43
0.0
10
164.44999999999999
20
-3.0249999999999999
10
164.44999999999999
20
-16.024999999999999
42
0.41421356237309503
10
164.95000000000002
20
-16.525000000000002
10
177.94999999999999
20
-16.525000000000002
42
0.41421356237309503
10
178.44999999999999
20
-16.024999999999999
10
178.44999999999999
20
-3.0249999999999999
42
0.41421356237309503
10
177.94999999999999
20
-2.5249999999999999
10
164.95000000000002
20
-2.5249999999999999
42
0.41421356237309503
0
LWPOLYLINE
5
114
100
AcDbEntity
8
0
100
AcDbPolyline
90
8
70
1
43
0.0
10
102.25000000000001
20
-3.0249999999999999
42
0.41421356237309503
10
101.75
20
-2.5249999999999999
10
88.75
20
-2.5249999999999999
42
0.41421356237309503
10
88.250000000000014
20
-3.0249999999999999
10
88.25
20
-16.024999999999999
42
0.41421356237309503
10
88.75
20
-16.525000000000002
10
101.75
20
-16.525000000000002
42
0.41421356237309503
10
102.25000000000001
20
-16.024999999999999
0
LWPOLYLINE
5
115
100
AcDbEntity
8
0
100
AcDbPolyline
90
8
70
1
43
0.0
10
241.15000000000003
20
-16.524999999999999
10
254.15000000000003
20
-16.525000000000002
42
0.41421356237309503
10
254.65000000000003
20
-16.024999999999999
10
254.65000000000003
20
-3.0249999999999999
42
0.41421356237309503
10
254.15000000000003
20
-2.5249999999999999
10
241.15000000000003
20
-2.5249999999999999
42
0.41421356237309503
10
240.65000000000001
20
-3.0249999999999999
10
240.65000000000001
20
-16.024999999999999
42
0.41421356237309503
0
LWPOLYLINE
5
116
100
AcDbEntity
8
0
100
AcDbPolyline
90
8
70
1
43
0.0
10
158.90000000000001
20
-16.525000000000002
42
0.41421356237309503
10
159.40000000000001
20
-16.024999999999999
10
159.40000000000001
20
-3.0249999999999999
42
0.41421356237309503
10
158.90000000000001
20
-2.5249999999999999
10
145.90000000000001
20
-2.5249999999999999
42
0.41421356237309503
10
145.40000000000001
20
-3.0249999999999999
10
145.40000000000001
20
-16.024999999999999
42
0.41421356237309503
10
145.90000000000001
20
-16.525000000000002
0
LWPOLYLINE
5
117
100
AcDbEntity
8
0
100
AcDbPolyline
90
8
70
1
43
0.0
10
273.19999999999999
20
-16.525000000000002
42
0.41421356237309503
10
273.69999999999999
20
-16.024999999999999
10
273.69999999999999
20
-3.0249999999999999
42
0.41421356237309503
10
273.19999999999999
20
-2.5249999999999999
10
260.19999999999999
20
-2.5249999999999999
42
0.41421356237309503
10
259.69999999999999
20
-3.0249999999999999
10
259.69999999999999
20
-16.024999999999999
42
0.41421356237309503
10
260.19999999999999
20
-16.524999999999999
0
LWPOLYLINE
5
118
100
AcDbEntity
8
0
100
AcDbPolyline
90
8
70
1
43
0.0
10
140.34999999999999
20
-3.0249999999999999
42
0.41421356237309503
10
139.84999999999999
20
-2.5249999999999999
10
126.85000000000001
20
-2.5249999999999999
42
0.41421356237309503
10
126.34999999999999
20
-3.0249999999999999
10
126.34999999999999
20
-16.024999999999999
42
0.41421356237309503
10
126.85000000000001
20
-16.525000000000002
10
139.84999999999999
20
-16.525000000000002
42
0.41421356237309503
10
140.34999999999999
20
-16.024999999999999
0
LINE
5
119
100
AcDbEntity
8
0
100
AcDbLine
10
4.90625
20
-22.074999999999999
30
0
11
4.90625
21
-35.075000000000003
31
0
0
LWPOLYLINE
5
120
100
AcDbEntity
8
0
100
AcDbPolyline
90
8
70
1
43
0.0
10
216.05000000000004
20
-16.525000000000002
42
0.41421356237309503
10
216.55000000000004
20
-16.024999999999999
10
216.55000000000004
20
-3.0249999999999999
42
0.41421356237309503
10
216.05000000000004
20
-2.5249999999999999
10
203.05000000000004
20
-2.5249999999999999
42
0.41421356237309503
10
202.55000000000001
20
-3.0249999999999999
10
202.55000000000001
20
-16.024999999999999
42
0.41421356237309503
10
203.05000000000004
20
-16.525000000000002
0
LWPOLYLINE
5
121
100
AcDbEntity
8
0
100
AcDbPolyline
90
8
70
1
43
0.0
10
221.59999999999999
20
-3.0249999999999999
10
221.59999999999999
20
-16.024999999999999
42
0.41421356237309503
10
222.10000000000002
20
-16.525000000000002
10
235.10000000000002
20
-16.525000000000002
42
0.41421356237309503
10
235.60000000000002
20
-16.024999999999999
10
235.60000000000002
20
-3.0249999999999999
42
0.41421356237309503
10
235.10000000000002
20
-2.5249999999999999
10
222.10000000000002
20
-2.5249999999999999
42
0.41421356237309503
0
LWPOLYLINE
5
122
100
AcDbEntity
8
0
100
AcDbPolyline
90
8
70
1
43
0.0
10
150.16249999999999
20
-22.074999999999999
10
150.16249999999999
20
-35.075000000000003
42
0.41421356237309503
10
150.66249999999999
20
-35.575000000000003
10
163.66250000000002
20
-35.575000000000003
42
0.41421356237309503
10
164.16250000000002
20
-35.075000000000003
10
164.16250000000002
20
-22.074999999999999
42
0.41421356237309503
10
163.66250000000002
20
-21.575000000000003
10
150.66249999999999
20
-21.575000000000003
42
0.41421356237309503
0
LWPOLYLINE
5
123
100
AcDbEntity
8
0
100
AcDbPolyline
90
8
70
1
43
0.0
10
126.06250000000001
20
-22.074999999999999
42
0.41421356237309503
10
125.5625
20
-21.575000000000003
10
112.56250000000001
20
-21.575000000000003
42
0.41421356237309503
10
112.0625
20
-22.074999999999999
10
112.0625
20
-35.075000000000003
42
0.41421356237309503
10
112.56250000000001
20
-35.575000000000003
10
125.5625
20
-35.575000000000003
42
0.41421356237309503
10
126.06250000000001
20
-35.075000000000003
0
LWPOLYLINE
5
124
100
AcDbEntity
8
0
100
AcDbPolyline
90
8
70
1
43
0.0
10
54.912500000000009
20
-35.075000000000003
42
0.41421356237309503
10
55.412500000000009
20
-35.575000000000003
10
68.412499999999994
20
-35.575000000000003
42
0.41421356237309503
10
68.912499999999994
20
-35.075000000000003
10
68.912499999999994
20
-22.074999999999999
42
0.41421356237309503
10
68.412499999999994
20
-21.575000000000003
10
55.412500000000009
20
-21.575000000000003
42
0.41421356237309503
10
54.912500000000009
20
-22.074999999999999
0
LWPOLYLINE
5
125
100
AcDbEntity
8
0
100
AcDbPolyline
90
8
70
1
43
0.0
10
35.862500000000004
20
-35.075000000000003
42
0.41421356237309503
10
36.362499999999997
20
-35.575000000000003
10
49.362500000000004
20
-35.575000000000003
42
0.41421356237309503
10
49.862499999999997
20
-35.075000000000003
10
49.862499999999997
20
-22.074999999999999
42
0.41421356237309503
10
49.362500000000004
20
-21.575000000000003
10
36.362499999999997
20
-21.575000000000003
42
0.41421356237309503
10
35.862500000000004
20
-22.074999999999999
0
LWPOLYLINE
5
126
100
AcDbEntity
8
0
100
AcDbPolyline
90
8
70
1
43
0.0
10
131.61250000000001
20
-35.575000000000003
10
144.61250000000001
20
-35.575000000000003
42
0.41421356237309503
10
145.11250000000001
20
-35.075000000000003
10
145.11250000000001
20
-22.074999999999999
42
0.41421356237309503
10
144.61250000000001
20
-21.575000000000003
10
131.61250000000001
20
-21.575000000000003
42
0.41421356237309503
10
131.11250000000001
20
-22.074999999999999
10
131.11250000000001
20
-35.075000000000003
42
0.41421356237309503
0
LWPOLYLINE
5
127
100
AcDbEntity
8
0
100
AcDbPolyline
90
8
70
1
43
0.0
10
74.462500000000006
20
-21.575000000000003
10
87.46250000000002
20
-21.574999999999992
42
-0.41421356237309503
10
87.96250000000002
20
-22.074999999999999
10
87.962500000000006
20
-35.075000000000003
42
-0.41421356237309503
10
87.46250000000002
20
-35.575000000000003
10
74.462500000000006
20
-35.575000000000003
42
-0.41421356237309503
10
73.962500000000006
20
-35.075000000000003
10
73.962500000000006
20
-22.074999999999999
42
-0.41421356237309503
0
LWPOLYLINE
5
128
100
AcDbEntity
8
0
100
AcDbPolyline
90
8
70
1
43
0.0
10
107.01250000000002
20
-22.074999999999999
42
0.41421356237309503
10
106.51250000000002
20
-21.575000000000003
10
93.512500000000003
20
-21.575000000000003
42
0.41421356237309503
10
93.012499999999989
20
-22.074999999999999
10
93.012499999999989
20
-35.075000000000003
42
0.41421356237309503
10
93.512500000000003
20
-35.575000000000003
10
106.51250000000002
20
-35.575000000000003
42
0.41421356237309503
10
107.01250000000002
20
-35.075000000000003
0
ARC
5
129
100
AcDbEntity
8
0
100
AcDbCircle
10
23.168749999999999
20
-22.074999999999999
30
0
40
0.49999999999999822
210
0
220
0
230
1
100
AcDbArc
50
0
51
90
0
ARC
5
130
100
AcDbEntity
8
0
100
AcDbCircle
10
5.40625
20
-35.075000000000003
30
0
40
0.49999999999999989
210
0
220
0
230
1
100
AcDbArc
50
180
51
270
0
LWPOLYLINE
5
131
100
AcDbEntity
8
0
100
AcDbPolyline
90
8
70
1
43
0.0
10
169.71250000000001
20
-21.575000000000003
10
182.71250000000003
20
-21.574999999999992
42
-0.41421356237309503
10
183.21250000000003
20
-22.074999999999999
10
183.21250000000003
20
-35.075000000000003
42
-0.41421356237309503
10
182.71250000000003
20
-35.575000000000003
10
169.71250000000001
20
-35.57500000000001
42
-0.41421356237309503
10
169.21250000000001
20
-35.075000000000003
10
169.21250000000001
20
-22.074999999999999
42
-0.41421356237309503
0
ARC
5
132
100
AcDbEntity
8
0
100
AcDbCircle
10
5.40625
20
-22.074999999999999
30
0
40
0.49999999999999822
210
0
220
-0
230
1
100
AcDbArc
50
90
51
180
0
LWPOLYLINE
5
133
100
AcDbEntity
8
0
100
AcDbPolyline
90
8
70
1
43
0.0
10
12.99325
20
-42.125
42
0.41421356237309503
10
12.49325
20
-41.625000000000007
10
6.4932500000000006
20
-41.625000000000007
42
0.41421356237309503
10
5.9932499999999997
20
-42.125
10
5.9932499999999997
20
-56.125000000000007
42
0.41421356237309503
10
6.4932500000000006
20
-56.625000000000007
10
12.49325
20
-56.625000000000007
42
0.41421356237309503
10
12.99325
20
-56.125000000000007
0
LINE
5
134
100
AcDbEntity
8
0
100
AcDbLine
10
23.668749999999999
20
-22.074999999999999
30
0
11
23.668749999999999
21
-35.075000000000003
31
0
0
LWPOLYLINE
5
135
100
AcDbEntity
8
0
100
AcDbPolyline
90
8
70
1
43
0.0
10
202.26249999999999
20
-22.074999999999999
42
0.41421356237309503
10
201.76249999999999
20
-21.575000000000003
10
188.76249999999999
20
-21.575000000000003
42
0.41421356237309503
10
188.26249999999999
20
-22.074999999999999
10
188.26249999999999
20
-35.075000000000003
42
0.41421356237309503
10
188.76249999999999
20
-35.575000000000003
10
201.76249999999999
20
-35.575000000000003
42
0.41421356237309503
10
202.26249999999999
20
-35.075000000000003
0
LWPOLYLINE
5
136
100
AcDbEntity
8
0
100
AcDbPolyline
90
8
70
1
43
0.0
10
226.36250000000001
20
-35.075000000000003
42
0.41421356237309503
10
226.86250000000001
20
-35.575000000000003
10
239.86250000000001
20
-35.575000000000003
42
0.41421356237309503
10
240.36250000000001
20
-35.075000000000003
10
240.36250000000001
20
-22.074999999999999
42
0.41421356237309503
10
239.86250000000001
20
-21.575000000000003
10
226.86250000000001
20
-21.575000000000003
42
0.41421356237309503
10
226.36250000000001
20
-22.074999999999999
0
ARC
5
137
100
AcDbEntity
8
0
100
AcDbCircle
10
23.168749999999999
20
-35.075000000000003
30
0
40
0.49999999999999822
210
0
220
0
230
1
100
AcDbArc
50
-90
51
0
0
LWPOLYLINE
5
138
100
AcDbEntity
8
0
100
AcDbPolyline
90
8
70
1
43
0.0
10
266.55624999999998
20
-22.074999999999999
42
0.41421356237309503
10
266.05624999999998
20
-21.575000000000003
10
253.05625000000003
20
-21.575000000000003
42
0.41421356237309503
10
252.55625000000003
20
-22.074999999999999
10
252.55625000000003
20
-35.075000000000003
42
0.41421356237309503
10
253.05625000000003
20
-35.575000000000003
10
266.05624999999998
20
-35.575000000000003
42
0.41421356237309503
10
266.55624999999998
20
-35.075000000000003
0
LWPOLYLINE
5
139
100
AcDbEntity
8
0
100
AcDbPolyline
90
8
70
1
43
0.0
10
14.93125
20
-54.625
10
27.931249999999999
20
-54.625
42
0.41421356237309503
10
28.431250000000002
20
-54.125000000000007
10
28.431249999999999
20
-41.125
42
0.41421356237309503
10
27.931249999999999
20
-40.625
10
14.93125
20
-40.625
42
0.41421356237309503
10
14.43125
20
-41.125
10
14.43125
20
-54.125000000000007
42
0.41421356237309503
0
LWPOLYLINE
5
140
100
AcDbEntity
8
0
100
AcDbPolyline
90
8
70
1
43
0.0
10
30.369250000000001
20
-41.625000000000007
10
36.369250000000001
20
-41.625000000000007
42
-0.41421356237309503
10
36.869250000000001
20
-42.125
10
36.869250000000001
20
-56.125000000000007
42
-0.41421356237309503
10
36.369250000000001
20
-56.625000000000007
10
30.369250000000001
20
-56.625000000000007
42
-0.41421356237309503
10
29.869250000000001
20
-56.125000000000007
10
29.869250000000001
20
-42.125
42
-0.41421356237309503
0
LWPOLYLINE
5
141
100
AcDbEntity
8
0
100
AcDbPolyline
90
8
70
1
43
0.0
10
97.487500000000011
20
-41.125
42
0.41421356237309503
10
96.987500000000011
20
-40.625
10
83.987499999999997
20
-40.625
42
0.41421356237309503
10
83.487499999999983
20
-41.125
10
83.487499999999983
20
-54.125000000000007
42
0.41421356237309503
10
83.987499999999997
20
-54.625
10
96.987500000000011
20
-54.625
42
0.41421356237309503
10
97.487500000000011
20
-54.125000000000007
0
LWPOLYLINE
5
142
100
AcDbEntity
8
0
100
AcDbPolyline
90
8
70
1
43
0.0
10
102.53749999999999
20
-54.125000000000007
42
0.41421356237309503
10
103.03750000000001
20
-54.625
10
116.03749999999999
20
-54.625
42
0.41421356237309503
10
116.53750000000001
20
-54.125000000000007
10
116.53750000000001
20
-41.125
42
0.41421356237309503
10
116.03749999999999
20
-40.625
10
103.03750000000001
20
-40.625
42
0.41421356237309503
10
102.53749999999999
20
-41.125
0
LWPOLYLINE
5
143
100
AcDbEntity
8
0
100
AcDbPolyline
90
8
70
1
43
0.0
10
179.23750000000001
20
-40.625
10
192.23750000000001
20
-40.624999999999993
42
-0.41421356237309503
10
192.73750000000004
20
-41.125
10
192.73750000000004
20
-54.125000000000007
42
-0.41421356237309503
10
192.23750000000001
20
-54.625
10
179.23750000000001
20
-54.625000000000014
42
-0.41421356237309503
10
178.73750000000001
20
-54.125000000000007
10
178.73750000000001
20
-41.125
42
-0.41421356237309503
0
LWPOLYLINE
5
144
100
AcDbEntity
8
0
100
AcDbPolyline
90
8
70
1
43
0.0
10
141.13749999999999
20
-54.625
10
154.13749999999999
20
-54.625
42
0.41421356237309503
10
154.63750000000002
20
-54.125000000000007
10
154.63750000000002
20
-41.125
42
0.41421356237309503
10
154.13749999999999
20
-40.625
10
141.13749999999999
20
-40.625
42
0.41421356237309503
10
140.63749999999999
20
-41.125
10
140.63749999999999
20
-54.125000000000007
42
0.41421356237309503
0
LWPOLYLINE
5
145
100
AcDbEntity
8
0
100
AcDbPolyline
90
8
70
1
43
0.0
10
207.3125
20
-35.075000000000003
42
0.41421356237309503
10
207.8125
20
-35.575000000000003
10
220.8125
20
-35.575000000000003
42
0.41421356237309503
10
221.3125
20
-35.075000000000003
10
221.3125
20
-22.074999999999999
42
0.41421356237309503
10
220.8125
20
-21.575000000000003
10
207.8125
20
-21.575000000000003
42
0.41421356237309503
10
207.31250000000003
20
-22.074999999999999
0
LWPOLYLINE
5
146
100
AcDbEntity
8
0
100
AcDbPolyline
90
8
70
1
43
0.0
10
173.68750000000003
20
-41.125
10
173.68750000000003
20
-54.125000000000007
42
-0.41421356237309503
10
173.1875
20
-54.625
10
160.1875
20
-54.625000000000014
42
-0.41421356237309503
10
159.6875
20
-54.125000000000007
10
159.6875
20
-41.125
42
-0.41421356237309503
10
160.1875
20
-40.625
10
173.1875
20
-40.624999999999993
42
-0.41421356237309503
0
LWPOLYLINE
5
147
100
AcDbEntity
8
0
100
AcDbPolyline
90
8
70
1
43
0.0
10
45.387500000000003
20
-54.125000000000007
42
0.41421356237309503
10
45.887500000000003
20
-54.625
10
58.88750000000001
20
-54.625
42
0.41421356237309503
10
59.387500000000003
20
-54.125000000000007
10
59.387500000000003
20
-41.125
42
0.41421356237309503
10
58.88750000000001
20
-40.625
10
45.887500000000003
20
-40.625
42
0.41421356237309503
10
45.387500000000003
20
-41.125
0
LWPOLYLINE
5
148
100
AcDbEntity
8
0
100
AcDbPolyline
90
8
70
1
43
0.0
10
64.9375
20
-40.625
10
77.9375
20
-40.625
42
-0.41421356237309503
10
78.4375
20
-41.125
10
78.4375
20
-54.125000000000007
42
-0.41421356237309503
10
77.9375
20
-54.625
10
64.9375
20
-54.625
42
-0.41421356237309503
10
64.4375
20
-54.125000000000007
10
64.4375
20
-41.125
42
-0.41421356237309503
0
LWPOLYLINE
5
149
100
AcDbEntity
8
0
100
AcDbPolyline
90
8
70
1
43
0.0
10
135.58750000000001
20
-41.125
42
0.41421356237309503
10
135.08750000000001
20
-40.625
10
122.08750000000002
20
-40.625
42
0.41421356237309503
10
121.58750000000001
20
-41.125
10
121.58750000000001
20
-54.125000000000007
42
0.41421356237309503
10
122.08750000000002
20
-54.625
10
135.08750000000001
20
-54.625
42
0.41421356237309503
10
135.58750000000001
20
-54.125000000000007
0
LWPOLYLINE
5
150
100
AcDbEntity
8
0
100
AcDbPolyline
90
8
70
1
43
0.0
10
197.78749999999999
20
-54.125000000000007
42
0.41421356237309503
10
198.28749999999999
20
-54.625
10
211.28749999999999
20
-54.625
42
0.41421356237309503
10
211.78750000000002
20
-54.125000000000007
10
211.78750000000002
20
-41.125
42
0.41421356237309503
10
211.28749999999999
20
-40.625
10
198.28749999999999
20
-40.625
42
0.41421356237309503
10
197.78749999999999
20
-41.125
0
LWPOLYLINE
5
151
100
AcDbEntity
8
0
100
AcDbPolyline
90
8
70
1
43
0.0
10
230.33750000000001
20
-54.625
42
0.41421356237309503
10
230.83750000000003
20
-54.125000000000007
10
230.83750000000003
20
-41.125
42
0.41421356237309503
10
230.33750000000001
20
-40.625
10
217.33750000000001
20
-40.625
42
0.41421356237309503
10
216.83750000000003
20
-41.125
10
216.83750000000001
20
-54.125000000000007
42
0.41421356237309503
10
217.33750000000001
20
-54.625
0
LWPOLYLINE
5
152
100
AcDbEntity
8
0
100
AcDbPolyline
90
8
70
1
43
0.0
10
273.69999999999999
20
-41.125
42
0.41421356237309503
10
273.19999999999999
20
-40.625
10
260.19999999999999
20
-40.625
42
0.41421356237309503
10
259.69999999999999
20
-41.125
10
259.69999999999999
20
-54.125000000000007
42
0.41421356237309503
10
260.19999999999999
20
-54.625
10
273.19999999999999
20
-54.625
42
0.41421356237309503
10
273.69999999999999
20
-54.125000000000007
0
LWPOLYLINE
5
153
100
AcDbEntity
8
0
100
AcDbPolyline
90
8
70
1
43
0.0
10
49.862499999999997
20
-60.174999999999997
42
0.41421356237309503
10
49.362500000000004
20
-59.675000000000004
10
33.981250000000003
20
-59.675000000000004
42
0.41421356237309503
10
33.481250000000003
20
-60.174999999999997
10
33.481250000000003
20
-73.174999999999997
42
0.41421356237309503
10
33.981250000000003
20
-73.674999999999997
10
49.362500000000004
20
-73.674999999999997
42
0.41421356237309503
10
49.862499999999997
20
-73.174999999999997
0
LWPOLYLINE
5
154
100
AcDbEntity
8
0
100
AcDbPolyline
90
14
70
1
43
0.0
10
54.912500000000009
20
-73.174999999999997
42
0.41421356237309503
10
55.412500000000009
20
-73.674999999999997
10
87.46250000000002
20
-73.674999999999997
42
0.41421356237309503
10
87.962500000000006
20
-73.174999999999997
10
87.962500000000006
20
-72.675000000000011
10
93.487500000000011
20
-72.675000000000011
42
0.41421356237309503
10
93.987500000000011
20
-72.175000000000011
10
93.987500000000011
20
-58.175000000000011
42
0.41421356237309503
10
93.487500000000011
20
-57.675000000000011
10
87.487499999999997
20
-57.675000000000011
42
0.41421356237309503
10
86.987500000000011
20
-58.175000000000011
10
86.987500000000011
20
-59.675000000000004
10
55.412500000000009
20
-59.675000000000004
42
0.41421356237309503
10
54.912500000000009
20
-60.174999999999997
0
LWPOLYLINE
5
155
100
AcDbEntity
8
0
100
AcDbPolyline
90
8
70
1
43
0.0
10
252.26875000000004
20
-41.125
10
252.26875000000004
20
-54.125000000000007
42
-0.41421356237309503
10
251.76875000000001
20
-54.625
10
238.76875000000001
20
-54.625000000000014
42
-0.41421356237309503
10
238.26875000000001
20
-54.125000000000007
10
238.26875000000001
20
-41.125
42
-0.41421356237309503
10
238.76875000000001
20
-40.625
10
251.76875000000001
20
-40.624999999999993
42
-0.41421356237309503
0
LWPOLYLINE
5
156
100
AcDbEntity
8
0
100
AcDbPolyline
90
14
70
1
43
0.0
10
131.11250000000001
20
-60.174999999999997
10
131.11250000000001
20
-73.174999999999997
42
0.41421356237309503
10
131.61250000000001
20
-73.674999999999997
10
144.61250000000001
20
-73.674999999999997
42
0.41421356237309503
10
145.11250000000001
20
-73.174999999999997
10
145.11250000000001
20
-72.675000000000011
10
150.60575
20
-72.675000000000011
42
0.41421356237309503
10
151.10575
20
-72.175000000000011
10
151.10575
20
-58.175000000000011
42
0.41421356237309503
10
150.60575
20
-57.675000000000011
10
144.60575
20
-57.675000000000011
42
0.41421356237309503
10
144.10575
20
-58.175000000000011
10
144.10575
20
-59.675000000000004
10
131.61250000000001
20
-59.675000000000004
42
0.41421356237309503
0
LINE
5
157
100
AcDbEntity
8
0
100
AcDbLine
10
188.26249999999999
20
-72.675000000000011
30
0
11
188.26249999999999
21
-73.174999999999997
31
0
0
ARC
5
158
100
AcDbEntity
8
0
100
AcDbCircle
10
188.76249999999999
20
-73.174999999999997
30
0
40
0.50000000000000711
210
0
220
0
230
1
100
AcDbArc
50
180
51
270
0
LINE
5
159
100
AcDbEntity
8
0
100
AcDbLine
10
5.40625
20
-35.575000000000003
30
0
11
23.168749999999999
21
-35.575000000000003
31
0
0
LINE
5
160
100
AcDbEntity
8
0
100
AcDbLine
10
5.40625
20
-21.575000000000003
30
0
11
23.168749999999999
21
-21.575000000000003
31
0
0
LWPOLYLINE
5
161
100
AcDbEntity
8
0
100
AcDbPolyline
90
8
70
1
43
0.0
10
96.48075
20
-72.175000000000011
10
96.480750000000029
20
-58.175000000000011
42
-0.41421356237309503
10
96.980750000000015
20
-57.675000000000011
10
102.98075
20
-57.674999999999997
42
-0.41421356237309503
10
103.48075000000001
20
-58.175000000000011
10
103.48075000000001
20
-72.175000000000011
42
-0.41421356237309503
10
102.98075
20
-72.675000000000011
10
96.980750000000015
20
-72.675000000000011
42
-0.41421356237309503
0
LWPOLYLINE
5
162
100
AcDbEntity
8
0
100
AcDbPolyline
90
8
70
1
43
0.0
10
126.85675000000002
20
-72.675000000000011
42
0.41421356237309503
10
127.35675000000002
20
-72.175000000000011
10
127.35675000000002
20
-58.175000000000011
42
0.41421356237309503
10
126.85675000000002
20
-57.675000000000011
10
120.85675000000002
20
-57.675000000000011
42
0.41421356237309503
10
120.35675000000001
20
-58.175000000000011
10
120.35675000000001
20
-72.175000000000011
42
0.41421356237309503
10
120.85675000000002
20
-72.675000000000011
0
LWPOLYLINE
5
163
100
AcDbEntity
8
0
100
AcDbPolyline
90
8
70
1
43
0.0
10
168.48175000000001
20
-57.675000000000011
42
0.41421356237309503
10
167.98175000000001
20
-58.175000000000011
10
167.98175000000001
20
-72.175000000000011
42
0.41421356237309503
10
168.48175000000001
20
-72.675000000000011
10
174.48175000000003
20
-72.675000000000011
42
0.41421356237309503
10
174.98175000000001
20
-72.175000000000011
10
174.98175000000001
20
-58.175000000000011
42
0.41421356237309503
10
174.48175000000003
20
-57.675000000000011
0
ARC
5
164
100
AcDbEntity
8
0
100
AcDbCircle
10
182.73750000000004
20
-72.175000000000011
30
0
40
0.50000000000000711
210
0
220
0
230
1
100
AcDbArc
50
180
51
270
0
LINE
5
165
100
AcDbEntity
8
0
100
AcDbLine
10
182.73750000000004
20
-72.675000000000011
30
0
11
188.26249999999999
21
-72.675000000000011
31
0
0
LINE
5
166
100
AcDbEntity
8
0
100
AcDbLine
10
189.23750000000001
20
-59.675000000000004
30
0
11
189.23750000000001
21
-58.175000000000011
31
0
0
LINE
5
167
100
AcDbEntity
8
0
100
AcDbLine
10
182.23750000000001
20
-72.175000000000011
30
0
11
182.23750000000001
21
-58.175000000000011
31
0
0
LINE
5
168
100
AcDbEntity
8
0
100
AcDbLine
10
182.73750000000004
20
-57.675000000000011
30
0
11
188.73750000000001
21
-57.675000000000011
31
0
0
ARC
5
169
100
AcDbEntity
8
0
100
AcDbCircle
10
182.73750000000004
20
-58.175000000000011
30
0
40
0.49999999999999822
210
0
220
-0
230
1
100
AcDbArc
50
90
51
180
0
LINE
5
170
100
AcDbEntity
8
0
100
AcDbLine
10
188.76249999999999
20
-73.674999999999997
30
0
11
220.8125
21
-73.674999999999997
31
0
0
LINE
5
171
100
AcDbEntity
8
0
100
AcDbLine
10
220.8125
20
-59.675000000000004
30
0
11
189.23750000000001
21
-59.675000000000004
31
0
0
ARC
5
172
100
AcDbEntity
8
0
100
AcDbCircle
10
188.73750000000004
20
-58.174999999999997
30
0
40
0.50000000000000711
210
-0
220
0
230
1
100
AcDbArc
50
0
51
90.000000000003254
0
ENDSEC
0
SECTION
2
OBJECTS
0
DICTIONARY
5
C
100
AcDbDictionary
3
ACAD_GROUP
350
D
3
ACAD_MLINESTYLE
350
17
0
DICTIONARY
5
D
100
AcDbDictionary
0
DICTIONARY
5
1A
330
C
100
AcDbDictionary
0
DICTIONARY
5
17
100
AcDbDictionary
0
ENDSEC
0
EOF
